<?xml version="1.0" encoding="UTF-8"?>
<svg width="800px" height="800px" fill="none" version="1.1" viewBox="0 0 24 24" xmlns="http://www.w3.org/2000/svg">
<path d="m22 12c0 5.5228-4.4772 10-10 10-5.5228 0-10-4.4772-10-10 0-5.5228 4.4772-10 10-10 5.5228 0 10 4.4772 10 10zm-5.9697-3.0303c0.2929 0.29289 0.2929 0.76777 0 1.0606l-5 5c-0.2929 0.2929-0.7677 0.2929-1.0606 0l-2-2c-0.29289-0.2929-0.29289-0.7677 0-1.0606s0.76777-0.2929 1.0607 0l1.4697 1.4696 2.2348-2.2348 2.2349-2.2348c0.2929-0.29289 0.7677-0.29289 1.0606 0z" clip-rule="evenodd" fill="#00c49d" fill-rule="evenodd"/>
</svg>
