<?xml version="1.0" encoding="us-ascii" standalone="no"?><svg xmlns="http://www.w3.org/2000/svg" xmlns:xlink="http://www.w3.org/1999/xlink" contentStyleType="text/css" height="1326px" preserveAspectRatio="none" style="width:749px;height:1326px;background:#FFFFFF;" version="1.1" viewBox="0 0 749 1326" width="749px" zoomAndPan="magnify"><defs/><g><rect fill="none" height="376.5313" style="stroke:#000000;stroke-width:1.5;" width="722" x="10" y="897.6797"/><line style="stroke:#181818;stroke-width:0.5;stroke-dasharray:5.0,5.0;" x1="48" x2="48" y1="36.2969" y2="1291.2109"/><line style="stroke:#181818;stroke-width:0.5;stroke-dasharray:5.0,5.0;" x1="287.5" x2="287.5" y1="36.2969" y2="1291.2109"/><line style="stroke:#181818;stroke-width:0.5;stroke-dasharray:5.0,5.0;" x1="364.5" x2="364.5" y1="36.2969" y2="1291.2109"/><line style="stroke:#181818;stroke-width:0.5;stroke-dasharray:5.0,5.0;" x1="591.5" x2="591.5" y1="36.2969" y2="1291.2109"/><rect fill="#E2E2F0" height="30.2969" rx="2.5" ry="2.5" style="stroke:#181818;stroke-width:0.5;" width="57" x="20" y="5"/><text fill="#000000" font-family="sans-serif" font-size="14" lengthAdjust="spacing" textLength="43" x="27" y="24.9951">Drone</text><rect fill="#E2E2F0" height="30.2969" rx="2.5" ry="2.5" style="stroke:#181818;stroke-width:0.5;" width="57" x="20" y="1290.2109"/><text fill="#000000" font-family="sans-serif" font-size="14" lengthAdjust="spacing" textLength="43" x="27" y="1310.2061">Drone</text><rect fill="#E2E2F0" height="30.2969" rx="2.5" ry="2.5" style="stroke:#181818;stroke-width:0.5;" width="62" x="256.5" y="5"/><text fill="#000000" font-family="sans-serif" font-size="14" lengthAdjust="spacing" textLength="48" x="263.5" y="24.9951">Station</text><rect fill="#E2E2F0" height="30.2969" rx="2.5" ry="2.5" style="stroke:#181818;stroke-width:0.5;" width="62" x="256.5" y="1290.2109"/><text fill="#000000" font-family="sans-serif" font-size="14" lengthAdjust="spacing" textLength="48" x="263.5" y="1310.2061">Station</text><rect fill="#E2E2F0" height="30.2969" rx="2.5" ry="2.5" style="stroke:#181818;stroke-width:0.5;" width="73" x="328.5" y="5"/><text fill="#000000" font-family="sans-serif" font-size="14" lengthAdjust="spacing" textLength="59" x="335.5" y="24.9951">Landlord</text><rect fill="#E2E2F0" height="30.2969" rx="2.5" ry="2.5" style="stroke:#181818;stroke-width:0.5;" width="73" x="328.5" y="1290.2109"/><text fill="#000000" font-family="sans-serif" font-size="14" lengthAdjust="spacing" textLength="59" x="335.5" y="1310.2061">Landlord</text><rect fill="#E2E2F0" height="30.2969" rx="2.5" ry="2.5" style="stroke:#181818;stroke-width:0.5;" width="117" x="533.5" y="5"/><text fill="#000000" font-family="sans-serif" font-size="14" lengthAdjust="spacing" textLength="103" x="540.5" y="24.9951">Smart Contract</text><rect fill="#E2E2F0" height="30.2969" rx="2.5" ry="2.5" style="stroke:#181818;stroke-width:0.5;" width="117" x="533.5" y="1290.2109"/><text fill="#000000" font-family="sans-serif" font-size="14" lengthAdjust="spacing" textLength="103" x="540.5" y="1310.2061">Smart Contract</text><rect fill="#EEEEEE" height="3" style="stroke:#EEEEEE;stroke-width:1.0;" width="742" x="0" y="66.8633"/><line style="stroke:#000000;stroke-width:1.0;" x1="0" x2="742" y1="66.8633" y2="66.8633"/><line style="stroke:#000000;stroke-width:1.0;" x1="0" x2="742" y1="69.8633" y2="69.8633"/><rect fill="#EEEEEE" height="23.1328" style="stroke:#000000;stroke-width:2.0;" width="78" x="332" y="56.2969"/><text fill="#000000" font-family="sans-serif" font-size="13" font-weight="bold" lengthAdjust="spacing" textLength="59" x="338" y="72.3638">Landing</text><polygon fill="#181818" points="580,121.6953,590,125.6953,580,129.6953,584,125.6953" style="stroke:#181818;stroke-width:1.0;"/><line style="stroke:#181818;stroke-width:1.0;" x1="287.5" x2="586" y1="125.6953" y2="125.6953"/><text fill="#000000" font-family="sans-serif" font-size="13" font-weight="bold" lengthAdjust="spacing" textLength="9" x="294.5" y="113.063">1</text><text fill="#000000" font-family="sans-serif" font-size="13" lengthAdjust="spacing" textLength="138" x="307.5" y="105.4966">Create an agreement</text><text fill="#000000" font-family="sans-serif" font-size="13" lengthAdjust="spacing" textLength="58" x="311.5" y="120.6294">for drone</text><polygon fill="#181818" points="580,150.8281,590,154.8281,580,158.8281,584,154.8281" style="stroke:#181818;stroke-width:1.0;"/><line style="stroke:#181818;stroke-width:1.0;" x1="48.5" x2="586" y1="154.8281" y2="154.8281"/><text fill="#000000" font-family="sans-serif" font-size="13" font-weight="bold" lengthAdjust="spacing" textLength="9" x="55.5" y="149.7622">2</text><text fill="#000000" font-family="sans-serif" font-size="13" lengthAdjust="spacing" textLength="123" x="68.5" y="149.7622">Sign an agreement</text><polygon fill="#181818" points="580,195.0938,590,199.0938,580,203.0938,584,199.0938" style="stroke:#181818;stroke-width:1.0;"/><line style="stroke:#181818;stroke-width:1.0;" x1="287.5" x2="586" y1="199.0938" y2="199.0938"/><text fill="#000000" font-family="sans-serif" font-size="13" font-weight="bold" lengthAdjust="spacing" textLength="9" x="294.5" y="186.4614">3</text><text fill="#000000" font-family="sans-serif" font-size="13" lengthAdjust="spacing" textLength="138" x="307.5" y="178.895">Create an agreement</text><text fill="#000000" font-family="sans-serif" font-size="13" lengthAdjust="spacing" textLength="72" x="311.5" y="194.0278">for landlord</text><polygon fill="#181818" points="580,224.2266,590,228.2266,580,232.2266,584,228.2266" style="stroke:#181818;stroke-width:1.0;"/><line style="stroke:#181818;stroke-width:1.0;" x1="365" x2="586" y1="228.2266" y2="228.2266"/><text fill="#000000" font-family="sans-serif" font-size="13" font-weight="bold" lengthAdjust="spacing" textLength="9" x="372" y="223.1606">4</text><text fill="#000000" font-family="sans-serif" font-size="13" lengthAdjust="spacing" textLength="123" x="385" y="223.1606">Sign an agreement</text><polygon fill="#181818" points="275.5,268.4922,285.5,272.4922,275.5,276.4922,279.5,272.4922" style="stroke:#181818;stroke-width:1.0;"/><line style="stroke:#181818;stroke-width:1.0;" x1="48.5" x2="281.5" y1="272.4922" y2="272.4922"/><text fill="#000000" font-family="sans-serif" font-size="13" font-weight="bold" lengthAdjust="spacing" textLength="9" x="55.5" y="259.8599">5</text><text fill="#000000" font-family="sans-serif" font-size="13" lengthAdjust="spacing" textLength="84" x="68.5" y="252.2935">Scan qr code</text><text fill="#000000" font-family="sans-serif" font-size="13" lengthAdjust="spacing" textLength="113" x="72.5" y="267.4263">to get an address</text><polygon fill="#181818" points="59.5,312.7578,49.5,316.7578,59.5,320.7578,55.5,316.7578" style="stroke:#181818;stroke-width:1.0;"/><line style="stroke:#181818;stroke-width:1.0;" x1="53.5" x2="286.5" y1="316.7578" y2="316.7578"/><text fill="#000000" font-family="sans-serif" font-size="13" font-weight="bold" lengthAdjust="spacing" textLength="9" x="65.5" y="304.1255">6</text><text fill="#000000" font-family="sans-serif" font-size="13" lengthAdjust="spacing" textLength="84" x="78.5" y="296.5591">Scan qr code</text><text fill="#000000" font-family="sans-serif" font-size="13" lengthAdjust="spacing" textLength="113" x="82.5" y="311.6919">to get an address</text><polygon fill="#181818" points="580,357.0234,590,361.0234,580,365.0234,584,361.0234" style="stroke:#181818;stroke-width:1.0;"/><line style="stroke:#181818;stroke-width:1.0;" x1="48.5" x2="586" y1="361.0234" y2="361.0234"/><text fill="#000000" font-family="sans-serif" font-size="13" font-weight="bold" lengthAdjust="spacing" textLength="9" x="55.5" y="348.3911">7</text><text fill="#000000" font-family="sans-serif" font-size="13" lengthAdjust="spacing" textLength="108" x="68.5" y="340.8247">Send tokens and</text><text fill="#000000" font-family="sans-serif" font-size="13" lengthAdjust="spacing" textLength="101" x="72.5" y="355.9575">execute landing</text><polygon fill="#181818" points="580,401.2891,590,405.2891,580,409.2891,584,405.2891" style="stroke:#181818;stroke-width:1.0;"/><line style="stroke:#181818;stroke-width:1.0;" x1="287.5" x2="586" y1="405.2891" y2="405.2891"/><text fill="#000000" font-family="sans-serif" font-size="13" font-weight="bold" lengthAdjust="spacing" textLength="9" x="294.5" y="392.6567">8</text><text fill="#000000" font-family="sans-serif" font-size="13" lengthAdjust="spacing" textLength="108" x="307.5" y="385.0903">Send tokens and</text><text fill="#000000" font-family="sans-serif" font-size="13" lengthAdjust="spacing" textLength="101" x="311.5" y="400.2231">execute landing</text><line style="stroke:#181818;stroke-width:1.0;" x1="592" x2="634" y1="479.8203" y2="479.8203"/><line style="stroke:#181818;stroke-width:1.0;" x1="634" x2="634" y1="479.8203" y2="492.8203"/><line style="stroke:#181818;stroke-width:1.0;" x1="593" x2="634" y1="492.8203" y2="492.8203"/><polygon fill="#181818" points="603,488.8203,593,492.8203,603,496.8203,599,492.8203" style="stroke:#181818;stroke-width:1.0;"/><text fill="#000000" font-family="sans-serif" font-size="13" font-weight="bold" lengthAdjust="spacing" textLength="9" x="599" y="452.0552">9</text><text fill="#000000" font-family="sans-serif" font-size="13" lengthAdjust="spacing" textLength="80" x="612" y="429.356">Get required</text><text fill="#000000" font-family="sans-serif" font-size="13" lengthAdjust="spacing" textLength="84" x="612" y="444.4888">amount from</text><text fill="#000000" font-family="sans-serif" font-size="13" lengthAdjust="spacing" textLength="71" x="612" y="459.6216">agreement</text><text fill="#000000" font-family="sans-serif" font-size="13" lengthAdjust="spacing" textLength="85" x="612" y="474.7544">and compare</text><line style="stroke:#181818;stroke-width:1.0;" x1="592" x2="634" y1="552.2188" y2="552.2188"/><line style="stroke:#181818;stroke-width:1.0;" x1="634" x2="634" y1="552.2188" y2="565.2188"/><line style="stroke:#181818;stroke-width:1.0;" x1="593" x2="634" y1="565.2188" y2="565.2188"/><polygon fill="#181818" points="603,561.2188,593,565.2188,603,569.2188,599,565.2188" style="stroke:#181818;stroke-width:1.0;"/><text fill="#000000" font-family="sans-serif" font-size="13" font-weight="bold" lengthAdjust="spacing" textLength="18" x="599" y="532.02">10</text><text fill="#000000" font-family="sans-serif" font-size="13" lengthAdjust="spacing" textLength="53" x="621" y="516.8872">Approve</text><text fill="#000000" font-family="sans-serif" font-size="13" lengthAdjust="spacing" textLength="50" x="625" y="532.02">landing,</text><text fill="#000000" font-family="sans-serif" font-size="13" lengthAdjust="spacing" textLength="69" x="621" y="547.1528">emit event</text><polygon fill="#181818" points="298.5,605.4844,288.5,609.4844,298.5,613.4844,294.5,609.4844" style="stroke:#181818;stroke-width:1.0;"/><line style="stroke:#181818;stroke-width:1.0;" x1="292.5" x2="591" y1="609.4844" y2="609.4844"/><text fill="#000000" font-family="sans-serif" font-size="13" font-weight="bold" lengthAdjust="spacing" textLength="18" x="304.5" y="596.8521">11</text><text fill="#000000" font-family="sans-serif" font-size="13" lengthAdjust="spacing" textLength="146" x="326.5" y="589.2856">Send tokens according</text><text fill="#000000" font-family="sans-serif" font-size="13" lengthAdjust="spacing" textLength="177" x="330.5" y="604.4185">drone - stataion agreement</text><polygon fill="#181818" points="376,649.75,366,653.75,376,657.75,372,653.75" style="stroke:#181818;stroke-width:1.0;"/><line style="stroke:#181818;stroke-width:1.0;" x1="370" x2="591" y1="653.75" y2="653.75"/><text fill="#000000" font-family="sans-serif" font-size="13" font-weight="bold" lengthAdjust="spacing" textLength="18" x="382" y="641.1177">12</text><text fill="#000000" font-family="sans-serif" font-size="13" lengthAdjust="spacing" textLength="146" x="404" y="633.5513">Send tokens according</text><text fill="#000000" font-family="sans-serif" font-size="13" lengthAdjust="spacing" textLength="177" x="408" y="648.6841">drone - stataion agreement</text><rect fill="#EEEEEE" height="3" style="stroke:#EEEEEE;stroke-width:1.0;" width="742" x="0" y="682.3164"/><line style="stroke:#000000;stroke-width:1.0;" x1="0" x2="742" y1="682.3164" y2="682.3164"/><line style="stroke:#000000;stroke-width:1.0;" x1="0" x2="742" y1="685.3164" y2="685.3164"/><rect fill="#EEEEEE" height="23.1328" style="stroke:#000000;stroke-width:2.0;" width="87" x="327.5" y="671.75"/><text fill="#000000" font-family="sans-serif" font-size="13" font-weight="bold" lengthAdjust="spacing" textLength="68" x="333.5" y="687.8169">Rejection</text><path d="M7,709.8828 L7,734.8828 L632,734.8828 L632,719.8828 L622,709.8828 L7,709.8828 " fill="#FEFFDD" style="stroke:#181818;stroke-width:0.5;"/><path d="M622,709.8828 L622,719.8828 L632,719.8828 L622,709.8828 " fill="#FEFFDD" style="stroke:#181818;stroke-width:0.5;"/><text fill="#000000" font-family="sans-serif" font-size="13" lengthAdjust="spacing" textLength="400" x="115.25" y="726.9497">This example is behalf of the drone but for station is the same.</text><polygon fill="#181818" points="275.5,757.1484,285.5,761.1484,275.5,765.1484,279.5,761.1484" style="stroke:#181818;stroke-width:1.0;"/><line style="stroke:#181818;stroke-width:1.0;" x1="48.5" x2="281.5" y1="761.1484" y2="761.1484"/><text fill="#000000" font-family="sans-serif" font-size="13" font-weight="bold" lengthAdjust="spacing" textLength="18" x="55.5" y="756.0825">13</text><text fill="#000000" font-family="sans-serif" font-size="13" lengthAdjust="spacing" textLength="114" x="77.5" y="756.0825">QR code scanning</text><polygon fill="#181818" points="580,786.2813,590,790.2813,580,794.2813,584,790.2813" style="stroke:#181818;stroke-width:1.0;"/><line style="stroke:#181818;stroke-width:1.0;" x1="48.5" x2="586" y1="790.2813" y2="790.2813"/><text fill="#000000" font-family="sans-serif" font-size="13" font-weight="bold" lengthAdjust="spacing" textLength="18" x="55.5" y="785.2153">14</text><text fill="#000000" font-family="sans-serif" font-size="13" lengthAdjust="spacing" textLength="267" x="77.5" y="785.2153">Send tokens and execute landing method</text><line style="stroke:#181818;stroke-width:1.0;" x1="48.5" x2="90.5" y1="819.4141" y2="819.4141"/><line style="stroke:#181818;stroke-width:1.0;" x1="90.5" x2="90.5" y1="819.4141" y2="832.4141"/><line style="stroke:#181818;stroke-width:1.0;" x1="49.5" x2="90.5" y1="832.4141" y2="832.4141"/><polygon fill="#181818" points="59.5,828.4141,49.5,832.4141,59.5,836.4141,55.5,832.4141" style="stroke:#181818;stroke-width:1.0;"/><text fill="#000000" font-family="sans-serif" font-size="13" font-weight="bold" lengthAdjust="spacing" textLength="18" x="55.5" y="814.3481">15</text><text fill="#000000" font-family="sans-serif" font-size="13" lengthAdjust="spacing" textLength="203" x="77.5" y="814.3481">Wait for 5m for landing approval</text><path d="M53,845.4141 L53,885.4141 L411,885.4141 L411,855.4141 L401,845.4141 L53,845.4141 " fill="#FEFFDD" style="stroke:#181818;stroke-width:0.5;"/><path d="M401,845.4141 L401,855.4141 L411,855.4141 L401,845.4141 " fill="#FEFFDD" style="stroke:#181818;stroke-width:0.5;"/><text fill="#000000" font-family="sans-serif" font-size="13" lengthAdjust="spacing" textLength="337" x="59" y="862.481">Approval is when drone and station executed landing</text><text fill="#000000" font-family="sans-serif" font-size="13" lengthAdjust="spacing" textLength="273" x="59" y="877.6138">and there is an event from smart contract.</text><path d="M10,897.6797 L74,897.6797 L74,904.8125 L64,914.8125 L10,914.8125 L10,897.6797 " fill="#EEEEEE" style="stroke:#000000;stroke-width:1.5;"/><rect fill="none" height="376.5313" style="stroke:#000000;stroke-width:1.5;" width="722" x="10" y="897.6797"/><text fill="#000000" font-family="sans-serif" font-size="13" font-weight="bold" lengthAdjust="spacing" textLength="19" x="25" y="910.7466">alt</text><text fill="#000000" font-family="sans-serif" font-size="11" font-weight="bold" lengthAdjust="spacing" textLength="142" x="89" y="909.8901">[There is an approval]</text><line style="stroke:#181818;stroke-width:1.0;" x1="48.5" x2="90.5" y1="935.9453" y2="935.9453"/><line style="stroke:#181818;stroke-width:1.0;" x1="90.5" x2="90.5" y1="935.9453" y2="948.9453"/><line style="stroke:#181818;stroke-width:1.0;" x1="61.5" x2="90.5" y1="948.9453" y2="948.9453"/><line style="stroke:#181818;stroke-width:2.0;" x1="54.5" x2="64.5" y1="943.9453" y2="953.9453"/><line style="stroke:#181818;stroke-width:2.0;" x1="54.5" x2="64.5" y1="953.9453" y2="943.9453"/><text fill="#000000" font-family="sans-serif" font-size="13" font-weight="bold" lengthAdjust="spacing" textLength="18" x="55.5" y="930.8794">16</text><text fill="#000000" font-family="sans-serif" font-size="13" lengthAdjust="spacing" textLength="71" x="77.5" y="930.8794">Exit waiting</text><line style="stroke:#000000;stroke-width:1.0;stroke-dasharray:2.0,2.0;" x1="10" x2="732" y1="957.9453" y2="957.9453"/><text fill="#000000" font-family="sans-serif" font-size="11" font-weight="bold" lengthAdjust="spacing" textLength="200" x="15" y="968.1558">[if There is no approval for 5m]</text><polygon fill="#181818" points="580,988.8828,590,992.8828,580,996.8828,584,992.8828" style="stroke:#181818;stroke-width:1.0;"/><line style="stroke:#181818;stroke-width:1.0;" x1="48.5" x2="586" y1="992.8828" y2="992.8828"/><text fill="#000000" font-family="sans-serif" font-size="13" font-weight="bold" lengthAdjust="spacing" textLength="18" x="55.5" y="987.8169">17</text><text fill="#000000" font-family="sans-serif" font-size="13" lengthAdjust="spacing" textLength="164" x="77.5" y="987.8169">Execute rejection method</text><line style="stroke:#181818;stroke-width:1.0;" x1="592" x2="634" y1="1067.4141" y2="1067.4141"/><line style="stroke:#181818;stroke-width:1.0;" x1="634" x2="634" y1="1067.4141" y2="1080.4141"/><line style="stroke:#181818;stroke-width:1.0;" x1="593" x2="634" y1="1080.4141" y2="1080.4141"/><polygon fill="#181818" points="603,1076.4141,593,1080.4141,603,1084.4141,599,1080.4141" style="stroke:#181818;stroke-width:1.0;"/><text fill="#000000" font-family="sans-serif" font-size="13" font-weight="bold" lengthAdjust="spacing" textLength="18" x="599" y="1039.6489">18</text><text fill="#000000" font-family="sans-serif" font-size="13" lengthAdjust="spacing" textLength="68" x="621" y="1016.9497">Check ACL</text><text fill="#000000" font-family="sans-serif" font-size="13" lengthAdjust="spacing" textLength="95" x="625" y="1032.0825">and check that</text><text fill="#000000" font-family="sans-serif" font-size="13" lengthAdjust="spacing" textLength="64" x="625" y="1047.2153">5 minutes</text><text fill="#000000" font-family="sans-serif" font-size="13" lengthAdjust="spacing" textLength="81" x="625" y="1062.3481">have passed</text><polygon fill="#181818" points="59.5,1105.5469,49.5,1109.5469,59.5,1113.5469,55.5,1109.5469" style="stroke:#181818;stroke-width:1.0;"/><line style="stroke:#181818;stroke-width:1.0;" x1="53.5" x2="591" y1="1109.5469" y2="1109.5469"/><text fill="#000000" font-family="sans-serif" font-size="13" font-weight="bold" lengthAdjust="spacing" textLength="18" x="65.5" y="1104.481">19</text><text fill="#000000" font-family="sans-serif" font-size="13" lengthAdjust="spacing" textLength="89" x="87.5" y="1104.481">Return tokens</text><line style="stroke:#181818;stroke-width:1.0;" x1="592" x2="634" y1="1153.8125" y2="1153.8125"/><line style="stroke:#181818;stroke-width:1.0;" x1="634" x2="634" y1="1153.8125" y2="1166.8125"/><line style="stroke:#181818;stroke-width:1.0;" x1="593" x2="634" y1="1166.8125" y2="1166.8125"/><polygon fill="#181818" points="603,1162.8125,593,1166.8125,603,1170.8125,599,1166.8125" style="stroke:#181818;stroke-width:1.0;"/><text fill="#000000" font-family="sans-serif" font-size="13" font-weight="bold" lengthAdjust="spacing" textLength="18" x="599" y="1141.1802">20</text><text fill="#000000" font-family="sans-serif" font-size="13" lengthAdjust="spacing" textLength="92" x="621" y="1133.6138">Delete landing</text><text fill="#000000" font-family="sans-serif" font-size="13" lengthAdjust="spacing" textLength="67" x="625" y="1148.7466">from state</text><line style="stroke:#181818;stroke-width:1.0;" x1="592" x2="634" y1="1211.0781" y2="1211.0781"/><line style="stroke:#181818;stroke-width:1.0;" x1="634" x2="634" y1="1211.0781" y2="1224.0781"/><line style="stroke:#181818;stroke-width:1.0;" x1="593" x2="634" y1="1224.0781" y2="1224.0781"/><polygon fill="#181818" points="603,1220.0781,593,1224.0781,603,1228.0781,599,1224.0781" style="stroke:#181818;stroke-width:1.0;"/><text fill="#000000" font-family="sans-serif" font-size="13" font-weight="bold" lengthAdjust="spacing" textLength="18" x="599" y="1198.4458">21</text><text fill="#000000" font-family="sans-serif" font-size="13" lengthAdjust="spacing" textLength="29" x="621" y="1190.8794">Emit</text><text fill="#000000" font-family="sans-serif" font-size="13" lengthAdjust="spacing" textLength="95" x="625" y="1206.0122">rejection event</text><line style="stroke:#181818;stroke-width:1.0;" x1="48.5" x2="90.5" y1="1253.2109" y2="1253.2109"/><line style="stroke:#181818;stroke-width:1.0;" x1="90.5" x2="90.5" y1="1253.2109" y2="1266.2109"/><line style="stroke:#181818;stroke-width:1.0;" x1="61.5" x2="90.5" y1="1266.2109" y2="1266.2109"/><line style="stroke:#181818;stroke-width:2.0;" x1="54.5" x2="64.5" y1="1261.2109" y2="1271.2109"/><line style="stroke:#181818;stroke-width:2.0;" x1="54.5" x2="64.5" y1="1271.2109" y2="1261.2109"/><text fill="#000000" font-family="sans-serif" font-size="13" font-weight="bold" lengthAdjust="spacing" textLength="18" x="55.5" y="1248.145">22</text><text fill="#000000" font-family="sans-serif" font-size="13" lengthAdjust="spacing" textLength="71" x="77.5" y="1248.145">Exit waiting</text><!--SRC=[dLHDRzim3BthLmWzTxtrCY03WZJOfPSb1Nh9XP5eMwj5kPASvkUFakMlOX_1BW4Dyf5yxr61FZhgxHcz41tuQ9JfWA9yyevGGf0w1QlKCK8qZb8o3E4g_GoaM-TrohSbNXNS7Ir_oPsZw475kzn82R7PPAoXMcusGfJUyiitpdwLEuyGUIEUMtj4YnHF92ldouRvTom-cffMfRTtcrOUWp_tNCmSkdEHueftBvNJo0sZapN6ZDBQOmZBFJBw1iYQ6PBccZUam3MQ0NX5rJENTj3kCzCR06gi_Sw3FRxtnYCNWdKzsrLvP_bZbebXlAnbIr4imDkky-wIA9J6zoT2QwB4IpP0hOLQhgKKwym8nXQokH3obSqMvWwZBV_L8jtO0N-YoWgbAoF7Il3QvOpk4vENnWHM2MpNekJmZ0sqbNILZ0sMzkS-vdCPrUQob0nWyU5tX_7Za0rcfO0egVutLpzR92t6nkaPKqxd5SomnQETRZULGxO2se6TDtKJoolPbapQzwF1KQmqSsHIPklfFbAIkVci1TzbzZEVXGpv9QloaXz4ef5c2cWZopXZfer62jUHm_xA73wOI1g5RM14DKF9JT12T2tSlWZb9rEBLFDTxXfKRtAxUpvHvgdoTsmWlVX7QGrnWy1n0nUK7OI08xoiUC3OUoh-B3e_OOkpIUd_8sl2EkAYQizlW7FpXiDx-8SGfCKl]--></g></svg>