<?xml version="1.0" encoding="us-ascii" standalone="no"?><svg xmlns="http://www.w3.org/2000/svg" xmlns:xlink="http://www.w3.org/1999/xlink" contentStyleType="text/css" height="546px" preserveAspectRatio="none" style="width:602px;height:546px;background:#FFFFFF;" version="1.1" viewBox="0 0 602 546" width="602px" zoomAndPan="magnify"><defs/><g><line style="stroke:#181818;stroke-width:0.5;stroke-dasharray:5.0,5.0;" x1="33" x2="33" y1="36.2969" y2="510.8203"/><line style="stroke:#181818;stroke-width:0.5;stroke-dasharray:5.0,5.0;" x1="167.5" x2="167.5" y1="36.2969" y2="510.8203"/><line style="stroke:#181818;stroke-width:0.5;stroke-dasharray:5.0,5.0;" x1="244.5" x2="244.5" y1="36.2969" y2="510.8203"/><line style="stroke:#181818;stroke-width:0.5;stroke-dasharray:5.0,5.0;" x1="471.5" x2="471.5" y1="36.2969" y2="510.8203"/><rect fill="#E2E2F0" height="30.2969" rx="2.5" ry="2.5" style="stroke:#181818;stroke-width:0.5;" width="57" x="5" y="5"/><text fill="#000000" font-family="sans-serif" font-size="14" lengthAdjust="spacing" textLength="43" x="12" y="24.9951">Drone</text><rect fill="#E2E2F0" height="30.2969" rx="2.5" ry="2.5" style="stroke:#181818;stroke-width:0.5;" width="57" x="5" y="509.8203"/><text fill="#000000" font-family="sans-serif" font-size="14" lengthAdjust="spacing" textLength="43" x="12" y="529.8154">Drone</text><rect fill="#E2E2F0" height="30.2969" rx="2.5" ry="2.5" style="stroke:#181818;stroke-width:0.5;" width="62" x="136.5" y="5"/><text fill="#000000" font-family="sans-serif" font-size="14" lengthAdjust="spacing" textLength="48" x="143.5" y="24.9951">Station</text><rect fill="#E2E2F0" height="30.2969" rx="2.5" ry="2.5" style="stroke:#181818;stroke-width:0.5;" width="62" x="136.5" y="509.8203"/><text fill="#000000" font-family="sans-serif" font-size="14" lengthAdjust="spacing" textLength="48" x="143.5" y="529.8154">Station</text><rect fill="#E2E2F0" height="30.2969" rx="2.5" ry="2.5" style="stroke:#181818;stroke-width:0.5;" width="73" x="208.5" y="5"/><text fill="#000000" font-family="sans-serif" font-size="14" lengthAdjust="spacing" textLength="59" x="215.5" y="24.9951">Landlord</text><rect fill="#E2E2F0" height="30.2969" rx="2.5" ry="2.5" style="stroke:#181818;stroke-width:0.5;" width="73" x="208.5" y="509.8203"/><text fill="#000000" font-family="sans-serif" font-size="14" lengthAdjust="spacing" textLength="59" x="215.5" y="529.8154">Landlord</text><rect fill="#E2E2F0" height="30.2969" rx="2.5" ry="2.5" style="stroke:#181818;stroke-width:0.5;" width="117" x="413.5" y="5"/><text fill="#000000" font-family="sans-serif" font-size="14" lengthAdjust="spacing" textLength="103" x="420.5" y="24.9951">Smart Contract</text><rect fill="#E2E2F0" height="30.2969" rx="2.5" ry="2.5" style="stroke:#181818;stroke-width:0.5;" width="117" x="413.5" y="509.8203"/><text fill="#000000" font-family="sans-serif" font-size="14" lengthAdjust="spacing" textLength="103" x="420.5" y="529.8154">Smart Contract</text><polygon fill="#181818" points="460,78.5625,470,82.5625,460,86.5625,464,82.5625" style="stroke:#181818;stroke-width:1.0;"/><line style="stroke:#181818;stroke-width:1.0;" x1="167.5" x2="466" y1="82.5625" y2="82.5625"/><text fill="#000000" font-family="sans-serif" font-size="13" font-weight="bold" lengthAdjust="spacing" textLength="9" x="174.5" y="69.9302">1</text><text fill="#000000" font-family="sans-serif" font-size="13" lengthAdjust="spacing" textLength="138" x="187.5" y="62.3638">Create an agreement</text><text fill="#000000" font-family="sans-serif" font-size="13" lengthAdjust="spacing" textLength="58" x="191.5" y="77.4966">for drone</text><polygon fill="#181818" points="460,107.6953,470,111.6953,460,115.6953,464,111.6953" style="stroke:#181818;stroke-width:1.0;"/><line style="stroke:#181818;stroke-width:1.0;" x1="33.5" x2="466" y1="111.6953" y2="111.6953"/><text fill="#000000" font-family="sans-serif" font-size="13" font-weight="bold" lengthAdjust="spacing" textLength="9" x="40.5" y="106.6294">2</text><text fill="#000000" font-family="sans-serif" font-size="13" lengthAdjust="spacing" textLength="123" x="53.5" y="106.6294">Sign an agreement</text><polygon fill="#181818" points="460,151.9609,470,155.9609,460,159.9609,464,155.9609" style="stroke:#181818;stroke-width:1.0;"/><line style="stroke:#181818;stroke-width:1.0;" x1="167.5" x2="466" y1="155.9609" y2="155.9609"/><text fill="#000000" font-family="sans-serif" font-size="13" font-weight="bold" lengthAdjust="spacing" textLength="9" x="174.5" y="143.3286">3</text><text fill="#000000" font-family="sans-serif" font-size="13" lengthAdjust="spacing" textLength="138" x="187.5" y="135.7622">Create an agreement</text><text fill="#000000" font-family="sans-serif" font-size="13" lengthAdjust="spacing" textLength="72" x="191.5" y="150.895">for landlord</text><polygon fill="#181818" points="460,181.0938,470,185.0938,460,189.0938,464,185.0938" style="stroke:#181818;stroke-width:1.0;"/><line style="stroke:#181818;stroke-width:1.0;" x1="245" x2="466" y1="185.0938" y2="185.0938"/><text fill="#000000" font-family="sans-serif" font-size="13" font-weight="bold" lengthAdjust="spacing" textLength="9" x="252" y="180.0278">4</text><text fill="#000000" font-family="sans-serif" font-size="13" lengthAdjust="spacing" textLength="123" x="265" y="180.0278">Sign an agreement</text><polygon fill="#181818" points="155.5,225.3594,165.5,229.3594,155.5,233.3594,159.5,229.3594" style="stroke:#181818;stroke-width:1.0;"/><line style="stroke:#181818;stroke-width:1.0;" x1="33.5" x2="161.5" y1="229.3594" y2="229.3594"/><text fill="#000000" font-family="sans-serif" font-size="13" font-weight="bold" lengthAdjust="spacing" textLength="9" x="40.5" y="216.7271">5</text><text fill="#000000" font-family="sans-serif" font-size="13" lengthAdjust="spacing" textLength="84" x="53.5" y="209.1606">Scan qr code</text><text fill="#000000" font-family="sans-serif" font-size="13" lengthAdjust="spacing" textLength="93" x="57.5" y="224.2935">to get address</text><polygon fill="#181818" points="44.5,269.625,34.5,273.625,44.5,277.625,40.5,273.625" style="stroke:#181818;stroke-width:1.0;"/><line style="stroke:#181818;stroke-width:1.0;" x1="38.5" x2="166.5" y1="273.625" y2="273.625"/><text fill="#000000" font-family="sans-serif" font-size="13" font-weight="bold" lengthAdjust="spacing" textLength="9" x="50.5" y="260.9927">6</text><text fill="#000000" font-family="sans-serif" font-size="13" lengthAdjust="spacing" textLength="84" x="63.5" y="253.4263">Scan qr code</text><text fill="#000000" font-family="sans-serif" font-size="13" lengthAdjust="spacing" textLength="93" x="67.5" y="268.5591">to get address</text><polygon fill="#181818" points="460,313.8906,470,317.8906,460,321.8906,464,317.8906" style="stroke:#181818;stroke-width:1.0;"/><line style="stroke:#181818;stroke-width:1.0;" x1="33.5" x2="466" y1="317.8906" y2="317.8906"/><text fill="#000000" font-family="sans-serif" font-size="13" font-weight="bold" lengthAdjust="spacing" textLength="9" x="40.5" y="305.2583">7</text><text fill="#000000" font-family="sans-serif" font-size="13" lengthAdjust="spacing" textLength="108" x="53.5" y="297.6919">Send tokens and</text><text fill="#000000" font-family="sans-serif" font-size="13" lengthAdjust="spacing" textLength="101" x="57.5" y="312.8247">execute landing</text><polygon fill="#181818" points="460,358.1563,470,362.1563,460,366.1563,464,362.1563" style="stroke:#181818;stroke-width:1.0;"/><line style="stroke:#181818;stroke-width:1.0;" x1="167.5" x2="466" y1="362.1563" y2="362.1563"/><text fill="#000000" font-family="sans-serif" font-size="13" font-weight="bold" lengthAdjust="spacing" textLength="9" x="174.5" y="349.5239">8</text><text fill="#000000" font-family="sans-serif" font-size="13" lengthAdjust="spacing" textLength="108" x="187.5" y="341.9575">Send tokens and</text><text fill="#000000" font-family="sans-serif" font-size="13" lengthAdjust="spacing" textLength="101" x="191.5" y="357.0903">execute landing</text><line style="stroke:#181818;stroke-width:1.0;" x1="472" x2="514" y1="391.2891" y2="391.2891"/><line style="stroke:#181818;stroke-width:1.0;" x1="514" x2="514" y1="391.2891" y2="404.2891"/><line style="stroke:#181818;stroke-width:1.0;" x1="473" x2="514" y1="404.2891" y2="404.2891"/><polygon fill="#181818" points="483,400.2891,473,404.2891,483,408.2891,479,404.2891" style="stroke:#181818;stroke-width:1.0;"/><text fill="#000000" font-family="sans-serif" font-size="13" font-weight="bold" lengthAdjust="spacing" textLength="9" x="479" y="386.2231">9</text><text fill="#000000" font-family="sans-serif" font-size="13" lengthAdjust="spacing" textLength="103" x="492" y="386.2231">Approve landing</text><polygon fill="#181818" points="178.5,444.5547,168.5,448.5547,178.5,452.5547,174.5,448.5547" style="stroke:#181818;stroke-width:1.0;"/><line style="stroke:#181818;stroke-width:1.0;" x1="172.5" x2="471" y1="448.5547" y2="448.5547"/><text fill="#000000" font-family="sans-serif" font-size="13" font-weight="bold" lengthAdjust="spacing" textLength="18" x="184.5" y="435.9224">10</text><text fill="#000000" font-family="sans-serif" font-size="13" lengthAdjust="spacing" textLength="146" x="206.5" y="428.356">Send tokens according</text><text fill="#000000" font-family="sans-serif" font-size="13" lengthAdjust="spacing" textLength="177" x="210.5" y="443.4888">drone - stataion agreement</text><polygon fill="#181818" points="256,488.8203,246,492.8203,256,496.8203,252,492.8203" style="stroke:#181818;stroke-width:1.0;"/><line style="stroke:#181818;stroke-width:1.0;" x1="250" x2="471" y1="492.8203" y2="492.8203"/><text fill="#000000" font-family="sans-serif" font-size="13" font-weight="bold" lengthAdjust="spacing" textLength="18" x="262" y="480.188">11</text><text fill="#000000" font-family="sans-serif" font-size="13" lengthAdjust="spacing" textLength="146" x="284" y="472.6216">Send tokens according</text><text fill="#000000" font-family="sans-serif" font-size="13" lengthAdjust="spacing" textLength="177" x="288" y="487.7544">drone - stataion agreement</text><!--SRC=[dP8nRiCm34LtdOB8dWjaA50aOpUlNLYADOJ6b4lHHOzVMh5RAq2Ge8j1WKzFduHniYpJyCOQmeXgYTA8Od3IB0nO8Cv5q-eCBMMPc-LIDkqNb7ZE6kV-UQaRODSDVe9Z5bCasrKHXR38OF_anmCSbT4yWZ_KA_F0Ogy2xrcNIFMxmbtgfK4Vj_rcN8lRpisR5xj3vCId0kN8BhGCFHjWZCgbR4FKg_VuTYQMwC07I_4OqMd-PffyYZbfalvwnliNGg4LVXv7pLyR5xLpRLr4lXQ7tBWah23Ml-1luzMmRl5VYXy0]--></g></svg>