<?xml version="1.0" encoding="us-ascii" standalone="no"?><svg xmlns="http://www.w3.org/2000/svg" xmlns:xlink="http://www.w3.org/1999/xlink" contentStyleType="text/css" height="1223px" preserveAspectRatio="none" style="width:749px;height:1223px;background:#FFFFFF;" version="1.1" viewBox="0 0 749 1223" width="749px" zoomAndPan="magnify"><defs/><g><rect fill="none" height="376.5313" style="stroke:#000000;stroke-width:1.5;" width="722" x="10" y="795.0156"/><line style="stroke:#181818;stroke-width:0.5;stroke-dasharray:5.0,5.0;" x1="48" x2="48" y1="36.2969" y2="1188.5469"/><line style="stroke:#181818;stroke-width:0.5;stroke-dasharray:5.0,5.0;" x1="287.5" x2="287.5" y1="36.2969" y2="1188.5469"/><line style="stroke:#181818;stroke-width:0.5;stroke-dasharray:5.0,5.0;" x1="364.5" x2="364.5" y1="36.2969" y2="1188.5469"/><line style="stroke:#181818;stroke-width:0.5;stroke-dasharray:5.0,5.0;" x1="591.5" x2="591.5" y1="36.2969" y2="1188.5469"/><rect fill="#E2E2F0" height="30.2969" rx="2.5" ry="2.5" style="stroke:#181818;stroke-width:0.5;" width="57" x="20" y="5"/><text fill="#000000" font-family="sans-serif" font-size="14" lengthAdjust="spacing" textLength="43" x="27" y="24.9951">Drone</text><rect fill="#E2E2F0" height="30.2969" rx="2.5" ry="2.5" style="stroke:#181818;stroke-width:0.5;" width="57" x="20" y="1187.5469"/><text fill="#000000" font-family="sans-serif" font-size="14" lengthAdjust="spacing" textLength="43" x="27" y="1207.542">Drone</text><rect fill="#E2E2F0" height="30.2969" rx="2.5" ry="2.5" style="stroke:#181818;stroke-width:0.5;" width="62" x="256.5" y="5"/><text fill="#000000" font-family="sans-serif" font-size="14" lengthAdjust="spacing" textLength="48" x="263.5" y="24.9951">Station</text><rect fill="#E2E2F0" height="30.2969" rx="2.5" ry="2.5" style="stroke:#181818;stroke-width:0.5;" width="62" x="256.5" y="1187.5469"/><text fill="#000000" font-family="sans-serif" font-size="14" lengthAdjust="spacing" textLength="48" x="263.5" y="1207.542">Station</text><rect fill="#E2E2F0" height="30.2969" rx="2.5" ry="2.5" style="stroke:#181818;stroke-width:0.5;" width="73" x="328.5" y="5"/><text fill="#000000" font-family="sans-serif" font-size="14" lengthAdjust="spacing" textLength="59" x="335.5" y="24.9951">Landlord</text><rect fill="#E2E2F0" height="30.2969" rx="2.5" ry="2.5" style="stroke:#181818;stroke-width:0.5;" width="73" x="328.5" y="1187.5469"/><text fill="#000000" font-family="sans-serif" font-size="14" lengthAdjust="spacing" textLength="59" x="335.5" y="1207.542">Landlord</text><rect fill="#E2E2F0" height="30.2969" rx="2.5" ry="2.5" style="stroke:#181818;stroke-width:0.5;" width="117" x="533.5" y="5"/><text fill="#000000" font-family="sans-serif" font-size="14" lengthAdjust="spacing" textLength="103" x="540.5" y="24.9951">Smart Contract</text><rect fill="#E2E2F0" height="30.2969" rx="2.5" ry="2.5" style="stroke:#181818;stroke-width:0.5;" width="117" x="533.5" y="1187.5469"/><text fill="#000000" font-family="sans-serif" font-size="14" lengthAdjust="spacing" textLength="103" x="540.5" y="1207.542">Smart Contract</text><rect fill="#EEEEEE" height="3" style="stroke:#EEEEEE;stroke-width:1.0;" width="742" x="0" y="66.8633"/><line style="stroke:#000000;stroke-width:1.0;" x1="0" x2="742" y1="66.8633" y2="66.8633"/><line style="stroke:#000000;stroke-width:1.0;" x1="0" x2="742" y1="69.8633" y2="69.8633"/><rect fill="#EEEEEE" height="23.1328" style="stroke:#000000;stroke-width:2.0;" width="78" x="332" y="56.2969"/><text fill="#000000" font-family="sans-serif" font-size="13" font-weight="bold" lengthAdjust="spacing" textLength="59" x="338" y="72.3638">Landing</text><polygon fill="#181818" points="580,121.6953,590,125.6953,580,129.6953,584,125.6953" style="stroke:#181818;stroke-width:1.0;"/><line style="stroke:#181818;stroke-width:1.0;" x1="287.5" x2="586" y1="125.6953" y2="125.6953"/><text fill="#000000" font-family="sans-serif" font-size="13" font-weight="bold" lengthAdjust="spacing" textLength="9" x="294.5" y="113.063">1</text><text fill="#000000" font-family="sans-serif" font-size="13" lengthAdjust="spacing" textLength="138" x="307.5" y="105.4966">Create an agreement</text><text fill="#000000" font-family="sans-serif" font-size="13" lengthAdjust="spacing" textLength="58" x="311.5" y="120.6294">for drone</text><polygon fill="#181818" points="580,150.8281,590,154.8281,580,158.8281,584,154.8281" style="stroke:#181818;stroke-width:1.0;"/><line style="stroke:#181818;stroke-width:1.0;" x1="48.5" x2="586" y1="154.8281" y2="154.8281"/><text fill="#000000" font-family="sans-serif" font-size="13" font-weight="bold" lengthAdjust="spacing" textLength="9" x="55.5" y="149.7622">2</text><text fill="#000000" font-family="sans-serif" font-size="13" lengthAdjust="spacing" textLength="123" x="68.5" y="149.7622">Sign an agreement</text><polygon fill="#181818" points="580,195.0938,590,199.0938,580,203.0938,584,199.0938" style="stroke:#181818;stroke-width:1.0;"/><line style="stroke:#181818;stroke-width:1.0;" x1="287.5" x2="586" y1="199.0938" y2="199.0938"/><text fill="#000000" font-family="sans-serif" font-size="13" font-weight="bold" lengthAdjust="spacing" textLength="9" x="294.5" y="186.4614">3</text><text fill="#000000" font-family="sans-serif" font-size="13" lengthAdjust="spacing" textLength="138" x="307.5" y="178.895">Create an agreement</text><text fill="#000000" font-family="sans-serif" font-size="13" lengthAdjust="spacing" textLength="72" x="311.5" y="194.0278">for landlord</text><polygon fill="#181818" points="580,224.2266,590,228.2266,580,232.2266,584,228.2266" style="stroke:#181818;stroke-width:1.0;"/><line style="stroke:#181818;stroke-width:1.0;" x1="365" x2="586" y1="228.2266" y2="228.2266"/><text fill="#000000" font-family="sans-serif" font-size="13" font-weight="bold" lengthAdjust="spacing" textLength="9" x="372" y="223.1606">4</text><text fill="#000000" font-family="sans-serif" font-size="13" lengthAdjust="spacing" textLength="123" x="385" y="223.1606">Sign an agreement</text><polygon fill="#181818" points="275.5,268.4922,285.5,272.4922,275.5,276.4922,279.5,272.4922" style="stroke:#181818;stroke-width:1.0;"/><line style="stroke:#181818;stroke-width:1.0;" x1="48.5" x2="281.5" y1="272.4922" y2="272.4922"/><text fill="#000000" font-family="sans-serif" font-size="13" font-weight="bold" lengthAdjust="spacing" textLength="9" x="55.5" y="259.8599">5</text><text fill="#000000" font-family="sans-serif" font-size="13" lengthAdjust="spacing" textLength="84" x="68.5" y="252.2935">Scan qr code</text><text fill="#000000" font-family="sans-serif" font-size="13" lengthAdjust="spacing" textLength="93" x="72.5" y="267.4263">to get address</text><polygon fill="#181818" points="59.5,312.7578,49.5,316.7578,59.5,320.7578,55.5,316.7578" style="stroke:#181818;stroke-width:1.0;"/><line style="stroke:#181818;stroke-width:1.0;" x1="53.5" x2="286.5" y1="316.7578" y2="316.7578"/><text fill="#000000" font-family="sans-serif" font-size="13" font-weight="bold" lengthAdjust="spacing" textLength="9" x="65.5" y="304.1255">6</text><text fill="#000000" font-family="sans-serif" font-size="13" lengthAdjust="spacing" textLength="84" x="78.5" y="296.5591">Scan qr code</text><text fill="#000000" font-family="sans-serif" font-size="13" lengthAdjust="spacing" textLength="93" x="82.5" y="311.6919">to get address</text><polygon fill="#181818" points="580,357.0234,590,361.0234,580,365.0234,584,361.0234" style="stroke:#181818;stroke-width:1.0;"/><line style="stroke:#181818;stroke-width:1.0;" x1="48.5" x2="586" y1="361.0234" y2="361.0234"/><text fill="#000000" font-family="sans-serif" font-size="13" font-weight="bold" lengthAdjust="spacing" textLength="9" x="55.5" y="348.3911">7</text><text fill="#000000" font-family="sans-serif" font-size="13" lengthAdjust="spacing" textLength="108" x="68.5" y="340.8247">Send tokens and</text><text fill="#000000" font-family="sans-serif" font-size="13" lengthAdjust="spacing" textLength="101" x="72.5" y="355.9575">execute landing</text><polygon fill="#181818" points="580,401.2891,590,405.2891,580,409.2891,584,405.2891" style="stroke:#181818;stroke-width:1.0;"/><line style="stroke:#181818;stroke-width:1.0;" x1="287.5" x2="586" y1="405.2891" y2="405.2891"/><text fill="#000000" font-family="sans-serif" font-size="13" font-weight="bold" lengthAdjust="spacing" textLength="9" x="294.5" y="392.6567">8</text><text fill="#000000" font-family="sans-serif" font-size="13" lengthAdjust="spacing" textLength="108" x="307.5" y="385.0903">Send tokens and</text><text fill="#000000" font-family="sans-serif" font-size="13" lengthAdjust="spacing" textLength="101" x="311.5" y="400.2231">execute landing</text><line style="stroke:#181818;stroke-width:1.0;" x1="592" x2="634" y1="449.5547" y2="449.5547"/><line style="stroke:#181818;stroke-width:1.0;" x1="634" x2="634" y1="449.5547" y2="462.5547"/><line style="stroke:#181818;stroke-width:1.0;" x1="593" x2="634" y1="462.5547" y2="462.5547"/><polygon fill="#181818" points="603,458.5547,593,462.5547,603,466.5547,599,462.5547" style="stroke:#181818;stroke-width:1.0;"/><text fill="#000000" font-family="sans-serif" font-size="13" font-weight="bold" lengthAdjust="spacing" textLength="9" x="599" y="436.9224">9</text><text fill="#000000" font-family="sans-serif" font-size="13" lengthAdjust="spacing" textLength="53" x="612" y="429.356">Approve</text><text fill="#000000" font-family="sans-serif" font-size="13" lengthAdjust="spacing" textLength="46" x="616" y="444.4888">landing</text><polygon fill="#181818" points="298.5,502.8203,288.5,506.8203,298.5,510.8203,294.5,506.8203" style="stroke:#181818;stroke-width:1.0;"/><line style="stroke:#181818;stroke-width:1.0;" x1="292.5" x2="591" y1="506.8203" y2="506.8203"/><text fill="#000000" font-family="sans-serif" font-size="13" font-weight="bold" lengthAdjust="spacing" textLength="18" x="304.5" y="494.188">10</text><text fill="#000000" font-family="sans-serif" font-size="13" lengthAdjust="spacing" textLength="146" x="326.5" y="486.6216">Send tokens according</text><text fill="#000000" font-family="sans-serif" font-size="13" lengthAdjust="spacing" textLength="177" x="330.5" y="501.7544">drone - stataion agreement</text><polygon fill="#181818" points="376,547.0859,366,551.0859,376,555.0859,372,551.0859" style="stroke:#181818;stroke-width:1.0;"/><line style="stroke:#181818;stroke-width:1.0;" x1="370" x2="591" y1="551.0859" y2="551.0859"/><text fill="#000000" font-family="sans-serif" font-size="13" font-weight="bold" lengthAdjust="spacing" textLength="18" x="382" y="538.4536">11</text><text fill="#000000" font-family="sans-serif" font-size="13" lengthAdjust="spacing" textLength="146" x="404" y="530.8872">Send tokens according</text><text fill="#000000" font-family="sans-serif" font-size="13" lengthAdjust="spacing" textLength="177" x="408" y="546.02">drone - stataion agreement</text><rect fill="#EEEEEE" height="3" style="stroke:#EEEEEE;stroke-width:1.0;" width="742" x="0" y="579.6523"/><line style="stroke:#000000;stroke-width:1.0;" x1="0" x2="742" y1="579.6523" y2="579.6523"/><line style="stroke:#000000;stroke-width:1.0;" x1="0" x2="742" y1="582.6523" y2="582.6523"/><rect fill="#EEEEEE" height="23.1328" style="stroke:#000000;stroke-width:2.0;" width="87" x="327.5" y="569.0859"/><text fill="#000000" font-family="sans-serif" font-size="13" font-weight="bold" lengthAdjust="spacing" textLength="68" x="333.5" y="585.1528">Rejection</text><path d="M7,607.2188 L7,632.2188 L632,632.2188 L632,617.2188 L622,607.2188 L7,607.2188 " fill="#FEFFDD" style="stroke:#181818;stroke-width:0.5;"/><path d="M622,607.2188 L622,617.2188 L632,617.2188 L622,607.2188 " fill="#FEFFDD" style="stroke:#181818;stroke-width:0.5;"/><text fill="#000000" font-family="sans-serif" font-size="13" lengthAdjust="spacing" textLength="400" x="115.25" y="624.2856">This example is behalf of the drone but for station is the same.</text><polygon fill="#181818" points="275.5,654.4844,285.5,658.4844,275.5,662.4844,279.5,658.4844" style="stroke:#181818;stroke-width:1.0;"/><line style="stroke:#181818;stroke-width:1.0;" x1="48.5" x2="281.5" y1="658.4844" y2="658.4844"/><text fill="#000000" font-family="sans-serif" font-size="13" font-weight="bold" lengthAdjust="spacing" textLength="18" x="55.5" y="653.4185">12</text><text fill="#000000" font-family="sans-serif" font-size="13" lengthAdjust="spacing" textLength="114" x="77.5" y="653.4185">QR code scanning</text><polygon fill="#181818" points="580,683.6172,590,687.6172,580,691.6172,584,687.6172" style="stroke:#181818;stroke-width:1.0;"/><line style="stroke:#181818;stroke-width:1.0;" x1="48.5" x2="586" y1="687.6172" y2="687.6172"/><text fill="#000000" font-family="sans-serif" font-size="13" font-weight="bold" lengthAdjust="spacing" textLength="18" x="55.5" y="682.5513">13</text><text fill="#000000" font-family="sans-serif" font-size="13" lengthAdjust="spacing" textLength="267" x="77.5" y="682.5513">Send tokens and execute landing method</text><line style="stroke:#181818;stroke-width:1.0;" x1="48.5" x2="90.5" y1="716.75" y2="716.75"/><line style="stroke:#181818;stroke-width:1.0;" x1="90.5" x2="90.5" y1="716.75" y2="729.75"/><line style="stroke:#181818;stroke-width:1.0;" x1="49.5" x2="90.5" y1="729.75" y2="729.75"/><polygon fill="#181818" points="59.5,725.75,49.5,729.75,59.5,733.75,55.5,729.75" style="stroke:#181818;stroke-width:1.0;"/><text fill="#000000" font-family="sans-serif" font-size="13" font-weight="bold" lengthAdjust="spacing" textLength="18" x="55.5" y="711.6841">14</text><text fill="#000000" font-family="sans-serif" font-size="13" lengthAdjust="spacing" textLength="203" x="77.5" y="711.6841">Wait for 5m for landing approval</text><path d="M53,742.75 L53,782.75 L411,782.75 L411,752.75 L401,742.75 L53,742.75 " fill="#FEFFDD" style="stroke:#181818;stroke-width:0.5;"/><path d="M401,742.75 L401,752.75 L411,752.75 L401,742.75 " fill="#FEFFDD" style="stroke:#181818;stroke-width:0.5;"/><text fill="#000000" font-family="sans-serif" font-size="13" lengthAdjust="spacing" textLength="337" x="59" y="759.8169">Approval is when drone and station executed landing</text><text fill="#000000" font-family="sans-serif" font-size="13" lengthAdjust="spacing" textLength="273" x="59" y="774.9497">and there is an event from smart contract.</text><path d="M10,795.0156 L74,795.0156 L74,802.1484 L64,812.1484 L10,812.1484 L10,795.0156 " fill="#EEEEEE" style="stroke:#000000;stroke-width:1.5;"/><rect fill="none" height="376.5313" style="stroke:#000000;stroke-width:1.5;" width="722" x="10" y="795.0156"/><text fill="#000000" font-family="sans-serif" font-size="13" font-weight="bold" lengthAdjust="spacing" textLength="19" x="25" y="808.0825">alt</text><text fill="#000000" font-family="sans-serif" font-size="11" font-weight="bold" lengthAdjust="spacing" textLength="142" x="89" y="807.2261">[There is an approval]</text><line style="stroke:#181818;stroke-width:1.0;" x1="48.5" x2="90.5" y1="833.2813" y2="833.2813"/><line style="stroke:#181818;stroke-width:1.0;" x1="90.5" x2="90.5" y1="833.2813" y2="846.2813"/><line style="stroke:#181818;stroke-width:1.0;" x1="61.5" x2="90.5" y1="846.2813" y2="846.2813"/><line style="stroke:#181818;stroke-width:2.0;" x1="54.5" x2="64.5" y1="841.2813" y2="851.2813"/><line style="stroke:#181818;stroke-width:2.0;" x1="54.5" x2="64.5" y1="851.2813" y2="841.2813"/><text fill="#000000" font-family="sans-serif" font-size="13" font-weight="bold" lengthAdjust="spacing" textLength="18" x="55.5" y="828.2153">15</text><text fill="#000000" font-family="sans-serif" font-size="13" lengthAdjust="spacing" textLength="71" x="77.5" y="828.2153">Exit waiting</text><line style="stroke:#000000;stroke-width:1.0;stroke-dasharray:2.0,2.0;" x1="10" x2="732" y1="855.2813" y2="855.2813"/><text fill="#000000" font-family="sans-serif" font-size="11" font-weight="bold" lengthAdjust="spacing" textLength="200" x="15" y="865.4917">[if There is no approval for 5m]</text><polygon fill="#181818" points="580,886.2188,590,890.2188,580,894.2188,584,890.2188" style="stroke:#181818;stroke-width:1.0;"/><line style="stroke:#181818;stroke-width:1.0;" x1="48.5" x2="586" y1="890.2188" y2="890.2188"/><text fill="#000000" font-family="sans-serif" font-size="13" font-weight="bold" lengthAdjust="spacing" textLength="18" x="55.5" y="885.1528">16</text><text fill="#000000" font-family="sans-serif" font-size="13" lengthAdjust="spacing" textLength="164" x="77.5" y="885.1528">Execute rejection method</text><line style="stroke:#181818;stroke-width:1.0;" x1="592" x2="634" y1="964.75" y2="964.75"/><line style="stroke:#181818;stroke-width:1.0;" x1="634" x2="634" y1="964.75" y2="977.75"/><line style="stroke:#181818;stroke-width:1.0;" x1="593" x2="634" y1="977.75" y2="977.75"/><polygon fill="#181818" points="603,973.75,593,977.75,603,981.75,599,977.75" style="stroke:#181818;stroke-width:1.0;"/><text fill="#000000" font-family="sans-serif" font-size="13" font-weight="bold" lengthAdjust="spacing" textLength="18" x="599" y="936.9849">17</text><text fill="#000000" font-family="sans-serif" font-size="13" lengthAdjust="spacing" textLength="68" x="621" y="914.2856">Check ACL</text><text fill="#000000" font-family="sans-serif" font-size="13" lengthAdjust="spacing" textLength="95" x="625" y="929.4185">and check that</text><text fill="#000000" font-family="sans-serif" font-size="13" lengthAdjust="spacing" textLength="64" x="625" y="944.5513">5 minutes</text><text fill="#000000" font-family="sans-serif" font-size="13" lengthAdjust="spacing" textLength="81" x="625" y="959.6841">have passed</text><polygon fill="#181818" points="59.5,1002.8828,49.5,1006.8828,59.5,1010.8828,55.5,1006.8828" style="stroke:#181818;stroke-width:1.0;"/><line style="stroke:#181818;stroke-width:1.0;" x1="53.5" x2="591" y1="1006.8828" y2="1006.8828"/><text fill="#000000" font-family="sans-serif" font-size="13" font-weight="bold" lengthAdjust="spacing" textLength="18" x="65.5" y="1001.8169">18</text><text fill="#000000" font-family="sans-serif" font-size="13" lengthAdjust="spacing" textLength="89" x="87.5" y="1001.8169">Return tokens</text><line style="stroke:#181818;stroke-width:1.0;" x1="592" x2="634" y1="1051.1484" y2="1051.1484"/><line style="stroke:#181818;stroke-width:1.0;" x1="634" x2="634" y1="1051.1484" y2="1064.1484"/><line style="stroke:#181818;stroke-width:1.0;" x1="593" x2="634" y1="1064.1484" y2="1064.1484"/><polygon fill="#181818" points="603,1060.1484,593,1064.1484,603,1068.1484,599,1064.1484" style="stroke:#181818;stroke-width:1.0;"/><text fill="#000000" font-family="sans-serif" font-size="13" font-weight="bold" lengthAdjust="spacing" textLength="18" x="599" y="1038.5161">19</text><text fill="#000000" font-family="sans-serif" font-size="13" lengthAdjust="spacing" textLength="92" x="621" y="1030.9497">Delete landing</text><text fill="#000000" font-family="sans-serif" font-size="13" lengthAdjust="spacing" textLength="67" x="625" y="1046.0825">from state</text><line style="stroke:#181818;stroke-width:1.0;" x1="592" x2="634" y1="1108.4141" y2="1108.4141"/><line style="stroke:#181818;stroke-width:1.0;" x1="634" x2="634" y1="1108.4141" y2="1121.4141"/><line style="stroke:#181818;stroke-width:1.0;" x1="593" x2="634" y1="1121.4141" y2="1121.4141"/><polygon fill="#181818" points="603,1117.4141,593,1121.4141,603,1125.4141,599,1121.4141" style="stroke:#181818;stroke-width:1.0;"/><text fill="#000000" font-family="sans-serif" font-size="13" font-weight="bold" lengthAdjust="spacing" textLength="18" x="599" y="1095.7817">20</text><text fill="#000000" font-family="sans-serif" font-size="13" lengthAdjust="spacing" textLength="29" x="621" y="1088.2153">Emit</text><text fill="#000000" font-family="sans-serif" font-size="13" lengthAdjust="spacing" textLength="95" x="625" y="1103.3481">rejection event</text><line style="stroke:#181818;stroke-width:1.0;" x1="48.5" x2="90.5" y1="1150.5469" y2="1150.5469"/><line style="stroke:#181818;stroke-width:1.0;" x1="90.5" x2="90.5" y1="1150.5469" y2="1163.5469"/><line style="stroke:#181818;stroke-width:1.0;" x1="61.5" x2="90.5" y1="1163.5469" y2="1163.5469"/><line style="stroke:#181818;stroke-width:2.0;" x1="54.5" x2="64.5" y1="1158.5469" y2="1168.5469"/><line style="stroke:#181818;stroke-width:2.0;" x1="54.5" x2="64.5" y1="1168.5469" y2="1158.5469"/><text fill="#000000" font-family="sans-serif" font-size="13" font-weight="bold" lengthAdjust="spacing" textLength="18" x="55.5" y="1145.481">21</text><text fill="#000000" font-family="sans-serif" font-size="13" lengthAdjust="spacing" textLength="71" x="77.5" y="1145.481">Exit waiting</text><!--SRC=[dLF1Rjim3BthAuIUkzvw6P01GPfRBqqAxD8B8z6sLelo93dDvu-I9JikjcNOnQ31H_AzHmh6w6Yq9_H23E2ZKMO0YlB9Eq89GUeKh5B72D4uIiamXQlqCv3kdTSftvTu1RWxMlwJEqVHWuftkP4IOhF9jOPQkTa8KNhBBzyu-rNkF49aHZotzOWMARwHR9ml3FEtWe-cfHNqtxlDb6lmvvvNCwVk35AC-EcbSXgvONIonIX1QuyXN9F8fRVmQqr8cW7lI85fQ4RZ1TN8Alh9jSyQRnU8e2fuEmpUdHE7kPjQAxlkfXGRmo265uuP2Fai5izpX-hZVxL8Ht707wYoi7GMv5W0Corxlq_aNpiJM1pOeKV9uGaxw1lf6XaxBErFOypxhIOnB2K3M7putIPV3dafR0uG9J_-jepFpagBiNDwgIdh_WvcOl5evsDBSCZkGp-fywRjOZdhRSaalXyTLhFIpAgapDRpvbAIjVdi1TyNdjbAsNXdPSXFJvMdzo2IZ3HJG1_PngLcPbGbNAg6_OKrVB2GD0hxm1NDKafkBYr2ryRjYr5-NcgnQZd5NOVgNMvtps-KTQhy7pj8J_HHMaFS873SmHdb025WBIyK3nX7JsK_LvsViCTbIUd1Pq_OHxn2xQr9anQ6sRzRHf0Mlm00]--></g></svg>