<?xml version="1.0" encoding="utf-8"?>
<!-- Generator: Adobe Illustrator 26.0.3, SVG Export Plug-In . SVG Version: 6.00 Build 0)  -->
<svg version="1.1" id="Ebene_1" xmlns="http://www.w3.org/2000/svg" xmlns:xlink="http://www.w3.org/1999/xlink" x="0px" y="0px"
	 viewBox="0 0 135 111" style="enable-background:new 0 0 135 111;" xml:space="preserve">
<style type="text/css">
	.st0{fill-rule:evenodd;clip-rule:evenodd;fill:#FFFFFF;}
	.st1{fill-rule:evenodd;clip-rule:evenodd;}
	.st2{fill-rule:evenodd;clip-rule:evenodd;fill:#E4001F;}
	.st3{fill:#FFFFFF;stroke:#000000;}
	.st4{enable-background:new    ;}
</style>
<g id="Group-6">
	<polygon id="Fill-1" class="st0" points="0,45 135,45 135,0 0,0 	"/>
	<path id="Fill-2" class="st1" d="M0,45h135V0H0V45z M91,44h43.1V1H91V44z M1,44h89V1H1V44z"/>
	<g id="Group-7">
		<path id="Fill-3" class="st2" d="M19.2,22.2c1.1-0.7,1.7-1.9,1.7-3.1c0-2.3-1.6-4.1-4.5-4.1h-4.9c-0.1,0-0.3,0.1-0.3,0.2
			c0,0,0,0,0,0v14.5c0,0.1,0.1,0.3,0.2,0.3c0,0,0,0,0,0h5.1c3,0,4.6-1.8,4.6-4.2c0-1.4-0.7-2.8-2-3.4C19.1,22.3,19.1,22.2,19.2,22.2
			L19.2,22.2z M16,17.5c1.4,0,2.1,0.7,2.1,1.8c0,1-0.8,1.9-1.8,1.9c-0.1,0-0.2,0-0.3,0h-2c-0.1,0-0.1,0-0.1-0.1c0,0,0,0,0,0v-3.5
			c0-0.1,0.1-0.1,0.1-0.1L16,17.5z M16.3,27.5H14c-0.1,0-0.1,0-0.1-0.1c0,0,0,0,0,0v-3.6c0-0.1,0-0.1,0.1-0.1c0,0,0,0,0,0h2.3
			c1-0.1,2,0.6,2.2,1.6c0,0.1,0,0.2,0,0.3C18.4,26.7,17.7,27.5,16.3,27.5L16.3,27.5z M33,17.2v-2c0-0.1-0.1-0.3-0.2-0.3c0,0,0,0,0,0
			h-7.8c-0.1,0-0.2,0.1-0.3,0.2c0,0,0,0,0,0v14.5c0,0.1,0.1,0.2,0.2,0.3c0,0,0,0,0,0h7.8c0.1,0,0.3-0.1,0.3-0.2c0,0,0,0,0,0v-2
			c0-0.1-0.1-0.3-0.2-0.3c0,0,0,0,0,0h-5.3c-0.1,0-0.1,0-0.1-0.1c0,0,0,0,0,0v-3.6c0-0.1,0-0.1,0.1-0.1c0,0,0,0,0,0h5.3
			c0.1,0,0.3-0.1,0.3-0.2c0,0,0,0,0,0v-1.9c0-0.1-0.1-0.3-0.2-0.3c0,0,0,0,0,0h-5.3c-0.1,0-0.1,0-0.1-0.1v-3.5
			c0-0.1,0.1-0.1,0.1-0.1c0,0,0,0,0,0h5.3C32.8,17.5,33,17.4,33,17.2C33,17.2,33,17.2,33,17.2L33,17.2z M44.6,30h2.7
			c0.2,0,0.3-0.1,0.2-0.3l-3.2-4.4c0-0.1,0-0.1,0-0.2c2-0.8,3.2-2.7,3.2-4.8c0-3.3-2.5-5.3-5.7-5.3h-4.6c-0.1,0-0.2,0.1-0.3,0.2
			c0,0,0,0,0,0v14.5c0,0.1,0.1,0.2,0.2,0.3c0,0,0,0,0,0h2.1c0.1,0,0.3-0.1,0.3-0.2c0,0,0,0,0,0v-4c0-0.1,0.1-0.1,0.1-0.1l0,0h1.6
			c0.1,0,0.1,0,0.2,0.1l2.9,4.1C44.4,29.9,44.5,30,44.6,30L44.6,30z M39.6,17.5h2c1.7,0,3.1,0.9,3.1,2.8s-1.4,2.8-3.2,2.8h-1.9
			c-0.1,0-0.1,0-0.1-0.1c0,0,0,0,0,0v-5.4C39.5,17.5,39.5,17.5,39.6,17.5L39.6,17.5z M53.5,27.4V15.3c0-0.1-0.1-0.3-0.2-0.3
			c0,0,0,0,0,0h-2.1c-0.1,0-0.3,0.1-0.3,0.2c0,0,0,0,0,0v14.5c0,0.1,0.1,0.3,0.2,0.3c0,0,0,0,0,0h7.3c0.1,0,0.2-0.1,0.3-0.2
			c0,0,0,0,0,0v-2c0-0.1-0.1-0.2-0.2-0.3c0,0,0,0,0,0h-4.8C53.6,27.5,53.5,27.4,53.5,27.4C53.5,27.4,53.5,27.4,53.5,27.4L53.5,27.4z
			 M62,30h2.1c0.1,0,0.3-0.1,0.3-0.2c0,0,0,0,0,0V15.3c0-0.1-0.1-0.3-0.2-0.3c0,0,0,0,0,0H62c-0.1,0-0.3,0.1-0.3,0.2c0,0,0,0,0,0
			v14.5C61.7,29.9,61.8,30,62,30C62,30,62,30,62,30z M77.1,15.3v9.9c0,0.1-0.1,0.2-0.2,0l-5.7-10C71.2,15.1,71.1,15,71,15h-2.5
			c-0.1,0-0.3,0.1-0.3,0.2c0,0,0,0,0,0v14.5c0,0.1,0.1,0.3,0.2,0.3c0,0,0,0,0,0h2.1c0.1,0,0.3-0.1,0.3-0.2c0,0,0,0,0,0v-9.9
			c0-0.1,0.1-0.2,0.2,0l5.7,10c0.1,0.1,0.2,0.2,0.3,0.2h2.4c0.1,0,0.2-0.1,0.3-0.2c0,0,0,0,0,0V15.3c0-0.1-0.1-0.2-0.2-0.3
			c0,0,0,0,0,0h-2.1C77.2,15,77.1,15.1,77.1,15.3C77.1,15.2,77.1,15.3,77.1,15.3L77.1,15.3z"/>
		<path id="Fill-5" class="st1" d="M118.7,35.5L118.7,35.5C118.7,35.5,118.7,35.5,118.7,35.5c-0.1,0.3-0.3,0.5-0.6,0.5h-3.8
			c0-0.6,0.3-1.1,0.8-1.3c0.5-0.2,1-0.4,1.5-0.4c-1.6-1-3-2.3-4.1-3.8c-0.6,0.6-1.1,1.3-1.4,2c-0.5,0.9-0.7,1.8-0.8,2.8
			c0,0.1-0.1,0.2-0.1,0.3l0,0v0.1l0,0l0,0l0,0l0,0c0,0.1-0.1,0.1-0.1,0.2l0,0c-0.1,0.1-0.2,0.1-0.3,0.1h-4c0-0.5,0.2-1,0.6-1.3
			c0.5-0.3,1.2-0.5,1.8-0.5c-0.8-2.9,0-6,2.1-8.1c-0.3-1.1-0.5-2.2-0.6-3.3l-4.7,0.9c-0.2,0-0.4,0-0.6-0.1l-1.2-0.7l-0.9-0.6
			c-0.1-0.1-0.2-0.2-0.1-0.3c0,0,0-0.1,0.1-0.1l0.1-0.1c0.5-0.4,1.2-0.5,1.7-0.2l0.4,0.1c0.2,0,0.3,0,0.4,0l0,0l4.8-2.4l-4.6-3.5
			c-0.1-0.1-0.2-0.2-0.2-0.3c0,0-0.5-1.1-0.5-1.1l-0.4-0.7c-0.1-0.2-0.1-0.4-0.1-0.6c0-0.1,0.1-0.1,0.2-0.1c0.2,0,0.4,0,0.6,0
			c0.4,0,0.8,0.2,1,0.6l0.4,0.8c0.1,0.1,0.2,0.2,0.4,0.3l4.4,1.7v-0.1l0.1-0.1c0.1-0.1,0.2-0.3,0.2-0.3l0,0c1.5-1.8,0.3-2.2-0.1-2.3
			l0,0h-0.1l0,0c-0.2-0.1-0.2-0.4-0.2-0.6c0,0,0.1-0.1,0.3-0.1c0.3,0,0.5-0.2,0.6-0.5v-0.1c0.1-0.1,0-0.5-0.2-0.4
			c-0.5,0.3-0.8-0.2-0.9,0.2c0,0-0.1,0-0.1,0c0,0,0,0,0,0c-0.1-0.1-0.2-0.3-0.3-0.4c0,0-0.1-0.1-0.1-0.1l0,0
			c-0.2-0.1-0.3-0.3-0.3-0.5l0,0l-0.1-0.8l0,0l0,0c0-0.1,0.1-0.3,0.3-0.2h0.6h0.6c0.2,0,0.3,0,0.4-0.1c0.4-0.3,0.9-0.5,1.4-0.6
			c0.2-0.1,0.5-0.1,0.8-0.1c0.5,0,1,0.1,1.5,0.3l0,0l0.3,0.2l0.1,0.1c0.1-0.1,0.1-0.1,0.2-0.1c0.5-0.2,1.1,0,1.3,0.4
			c0.3,0.4,0.2,0.9-0.1,1.3c0,0,0.1,0.1,0.1,0.1c0.2,0.4,0.3,0.9,0.4,1.3c0.2,0.9,0.3,1.8,0.2,2.7c-0.1,1-0.4,2-0.8,3l0,0
			c0,0,0,0.1,0,0.1c0,0.1-0.1,0.1-0.1,0.2c-0.4,1.1-0.6,2.2-0.6,3.4c-0.1,1.9,0.3,3.7,1.2,5.4c0.1,0.2,0.1,0.5-0.2,0.6
			c-0.1,0-0.1,0.1-0.2,0.1h-0.2C117.9,30.2,118.7,35.3,118.7,35.5L118.7,35.5L118.7,35.5"/>
	</g>
	<rect id="Rectangle" x="0.5" y="44.5" class="st3" width="134" height="66"/>
	<g class="st4">
		<path d="M11.1,66.8v-9c0-0.1,0.1-0.2,0.1-0.2h3c1.8,0,2.8,1.1,2.8,2.5c0,0.9-0.4,1.5-1,1.9c-0.1,0.1-0.1,0.1,0,0.2
			c0.7,0.4,1.2,1.1,1.2,2.1c0,1.5-1,2.6-2.8,2.6h-3.2C11.2,67,11.1,66.9,11.1,66.8z M12.7,59.3v2.2c0,0.1,0,0.1,0.1,0.1h1.3
			c0.8,0,1.3-0.5,1.3-1.2c0-0.7-0.5-1.2-1.3-1.2L12.7,59.3C12.8,59.2,12.7,59.3,12.7,59.3z M12.7,63.1v2.2c0,0,0,0.1,0.1,0.1h1.4
			c0.9,0,1.3-0.5,1.3-1.2s-0.5-1.2-1.3-1.2L12.7,63.1C12.8,63.1,12.7,63.1,12.7,63.1z"/>
		<path d="M19.2,57.7H24c0.1,0,0.2,0.1,0.2,0.2v1.2c0,0.1-0.1,0.2-0.2,0.2h-3.3c0,0-0.1,0-0.1,0.1v2.1c0,0.1,0,0.1,0.1,0.1H24
			c0.1,0,0.2,0.1,0.2,0.2v1.2c0,0.1-0.1,0.2-0.2,0.2h-3.3c0,0-0.1,0-0.1,0.1v2.2c0,0,0,0.1,0.1,0.1H24c0.1,0,0.2,0.1,0.2,0.2v1.2
			c0,0.1-0.1,0.2-0.2,0.2h-4.8c-0.1,0-0.2-0.1-0.2-0.2v-9C19,57.8,19.1,57.7,19.2,57.7z"/>
		<path d="M27.6,67h-1.3c-0.1,0-0.2-0.1-0.2-0.2v-9c0-0.1,0.1-0.2,0.2-0.2h2.8c2,0,3.6,1.2,3.6,3.3c0,1.5-0.8,2.5-1.9,3
			c-0.1,0-0.1,0.1-0.1,0.2l2,2.7c0.1,0.1,0,0.2-0.1,0.2H31c-0.2,0-0.2,0-0.3-0.2l-1.7-2.4c-0.1-0.1-0.1-0.1-0.3-0.1h-0.9
			c0,0-0.1,0-0.1,0.1v2.5C27.7,66.9,27.6,67,27.6,67z M27.7,59.3v3.4c0,0,0,0.1,0.1,0.1H29c1.1,0,2-0.6,2-1.8c0-1.2-0.9-1.8-2-1.8
			L27.7,59.3C27.7,59.2,27.7,59.3,27.7,59.3z"/>
		<path d="M34.5,57.7h1.3c0.1,0,0.2,0.1,0.2,0.2v7.5c0,0,0,0.1,0.1,0.1h3c0.1,0,0.2,0.1,0.2,0.2v1.2c0,0.1-0.1,0.2-0.2,0.2h-4.5
			c-0.1,0-0.2-0.1-0.2-0.2v-9C34.4,57.8,34.4,57.7,34.5,57.7z"/>
		<path d="M42.2,57.8v9c0,0.1-0.1,0.2-0.2,0.2h-1.3c-0.1,0-0.2-0.1-0.2-0.2v-9c0-0.1,0.1-0.2,0.2-0.2H42
			C42.1,57.7,42.2,57.8,42.2,57.8z"/>
		<path d="M49.9,64v-6.1c0-0.1,0.1-0.2,0.2-0.2h1.3c0.1,0,0.2,0.1,0.2,0.2v9c0,0.1-0.1,0.2-0.2,0.2h-1.4c-0.1,0-0.2,0-0.3-0.2
			l-3.5-6.1c0-0.1-0.1-0.1-0.1,0v6.1c0,0.1-0.1,0.2-0.2,0.2h-1.3c-0.1,0-0.2-0.1-0.2-0.2v-9c0-0.1,0.1-0.2,0.2-0.2H46
			c0.1,0,0.2,0,0.3,0.2L49.9,64C49.8,64.1,49.9,64,49.9,64z"/>
	</g>
	<g class="st4">
		<path d="M62.8,61.1c0,2.1-1.4,3.4-3.5,3.4h-1.1c-0.1,0-0.1,0-0.1,0.1v2.3c0,0.1-0.1,0.2-0.2,0.2h-1.3c-0.1,0-0.2-0.1-0.2-0.2v-9
			c0-0.1,0.1-0.2,0.2-0.2h2.6C61.4,57.7,62.8,59,62.8,61.1z M58.2,62.9h0.9c1.3,0,2-0.7,2-1.8s-0.7-1.8-2-1.8h-0.9
			c0,0-0.1,0-0.1,0.1L58.2,62.9C58.1,62.9,58.2,62.9,58.2,62.9z"/>
	</g>
	<g class="st4">
		<path d="M68.3,57.9l2.6,9c0,0.1,0,0.2-0.1,0.2h-1.4c-0.1,0-0.1,0-0.2-0.1l-0.5-1.6c0-0.1-0.1-0.1-0.1-0.1h-3.4
			c-0.1,0-0.1,0-0.1,0.1l-0.5,1.6c0,0.1-0.1,0.1-0.2,0.1h-1.4c-0.1,0-0.2-0.1-0.1-0.2l2.6-9c0-0.2,0.1-0.2,0.3-0.2h2.3
			C68.2,57.7,68.3,57.7,68.3,57.9z M65.6,63.6h2.5c0.1,0,0.1,0,0.1-0.1L67,59.3c0-0.1,0-0.1-0.1-0.1h-0.1c0,0-0.1,0-0.1,0.1
			L65.6,63.6C65.6,63.6,65.6,63.6,65.6,63.6z"/>
	</g>
	<g class="st4">
		<path d="M73.7,67h-1.3c-0.1,0-0.2-0.1-0.2-0.2v-9c0-0.1,0.1-0.2,0.2-0.2h2.8c2,0,3.6,1.2,3.6,3.3c0,1.5-0.8,2.5-1.9,3
			c-0.1,0-0.1,0.1-0.1,0.2l2,2.7c0.1,0.1,0,0.2-0.1,0.2h-1.6c-0.2,0-0.2,0-0.3-0.2l-1.7-2.4c-0.1-0.1-0.1-0.1-0.3-0.1H74
			c0,0-0.1,0-0.1,0.1v2.5C73.9,66.9,73.8,67,73.7,67z M73.9,59.3v3.4c0,0,0,0.1,0.1,0.1h1.2c1.1,0,2-0.6,2-1.8c0-1.2-0.9-1.8-2-1.8
			L73.9,59.3C73.9,59.2,73.9,59.3,73.9,59.3z"/>
	</g>
	<g class="st4">
		<path d="M85.8,57.8v1.2c0,0.1-0.1,0.2-0.2,0.2h-2.2c-0.1,0-0.1,0-0.1,0.1v7.5c0,0.1-0.1,0.2-0.2,0.2H82c-0.1,0-0.2-0.1-0.2-0.2
			v-7.5c0,0,0-0.1-0.1-0.1h-2.2c-0.1,0-0.2-0.1-0.2-0.2v-1.2c0-0.1,0.1-0.2,0.2-0.2h6.1C85.8,57.7,85.8,57.8,85.8,57.8z"/>
		<path d="M92.6,64v-6.1c0-0.1,0.1-0.2,0.2-0.2h1.3c0.1,0,0.2,0.1,0.2,0.2v9c0,0.1-0.1,0.2-0.2,0.2h-1.4c-0.1,0-0.2,0-0.3-0.2
			l-3.5-6.1c0-0.1-0.1-0.1-0.1,0v6.1c0,0.1-0.1,0.2-0.2,0.2h-1.3c-0.1,0-0.2-0.1-0.2-0.2v-9c0-0.1,0.1-0.2,0.2-0.2h1.4
			c0.1,0,0.2,0,0.3,0.2L92.6,64C92.6,64.1,92.6,64,92.6,64z"/>
		<path d="M96.6,57.7h4.8c0.1,0,0.2,0.1,0.2,0.2v1.2c0,0.1-0.1,0.2-0.2,0.2h-3.3c0,0-0.1,0-0.1,0.1v2.1c0,0.1,0,0.1,0.1,0.1h3.3
			c0.1,0,0.2,0.1,0.2,0.2v1.2c0,0.1-0.1,0.2-0.2,0.2h-3.3c0,0-0.1,0-0.1,0.1v2.2c0,0,0,0.1,0.1,0.1h3.3c0.1,0,0.2,0.1,0.2,0.2v1.2
			c0,0.1-0.1,0.2-0.2,0.2h-4.8c-0.1,0-0.2-0.1-0.2-0.2v-9C96.5,57.8,96.5,57.7,96.6,57.7z"/>
		<path d="M105,67h-1.3c-0.1,0-0.2-0.1-0.2-0.2v-9c0-0.1,0.1-0.2,0.2-0.2h2.8c2,0,3.6,1.2,3.6,3.3c0,1.5-0.8,2.5-1.9,3
			c-0.1,0-0.1,0.1-0.1,0.2l2,2.7c0.1,0.1,0,0.2-0.1,0.2h-1.6c-0.2,0-0.2,0-0.3-0.2l-1.7-2.4c-0.1-0.1-0.1-0.1-0.3-0.1h-0.9
			c0,0-0.1,0-0.1,0.1v2.5C105.2,66.9,105.1,67,105,67z M105.2,59.3v3.4c0,0,0,0.1,0.1,0.1h1.2c1.1,0,2-0.6,2-1.8
			c0-1.2-0.9-1.8-2-1.8L105.2,59.3C105.2,59.2,105.2,59.3,105.2,59.3z"/>
	</g>
	<g class="st4">
		<path d="M11.1,82.4v-4.5c0,0,0-0.1-0.1-0.1h-0.5c-0.1,0-0.1,0-0.1-0.1v-0.5c0-0.1,0-0.1,0.1-0.1H11c0,0,0.1,0,0.1-0.1v-1.7
			c0-0.8,0.4-1.4,1.3-1.4c0.2,0,0.5,0.1,0.6,0.2c0.1,0,0.1,0.1,0.1,0.1l-0.2,0.5c0,0.1-0.1,0.1-0.2,0c-0.1-0.1-0.2-0.1-0.3-0.1
			c-0.3,0-0.5,0.2-0.5,0.6V77c0,0,0,0.1,0.1,0.1h0.7c0.1,0,0.1,0,0.1,0.1v0.5c0,0.1,0,0.1-0.1,0.1H12c0,0-0.1,0-0.1,0.1v4.5
			c0,0.1,0,0.1-0.1,0.1h-0.6C11.1,82.5,11.1,82.5,11.1,82.4z"/>
		<path d="M17.3,77.1H18c0.1,0,0.1,0,0.1,0.1v5.2c0,0.1,0,0.1-0.1,0.1h-0.6c-0.1,0-0.1,0-0.1-0.1V82c0-0.1,0-0.1-0.1,0
			c-0.3,0.4-0.8,0.6-1.4,0.6c-1.2,0-1.8-0.8-1.8-1.8v-3.6c0-0.1,0-0.1,0.1-0.1h0.6c0.1,0,0.1,0,0.1,0.1v3.5c0,0.8,0.4,1.2,1.1,1.2
			c0.5,0,0.9-0.3,1.2-0.8c0-0.1,0.1-0.2,0.1-0.2v-3.7C17.2,77.1,17.3,77.1,17.3,77.1z M14.2,75.2c0-0.3,0.3-0.6,0.6-0.6
			c0.3,0,0.6,0.3,0.6,0.6c0,0.3-0.3,0.6-0.6,0.6C14.5,75.8,14.2,75.5,14.2,75.2z M16.6,75.2c0-0.3,0.3-0.6,0.6-0.6
			c0.3,0,0.6,0.3,0.6,0.6c0,0.3-0.3,0.6-0.6,0.6C16.8,75.8,16.6,75.5,16.6,75.2z"/>
	</g>
	<g class="st4">
		<path d="M22.4,77c0.1,0,0.1,0,0.1,0.1v0.6c0,0.1,0,0.1-0.1,0.1c-0.1,0-0.2,0-0.3,0c-0.6,0-1,0.3-1.3,0.7c-0.1,0.1-0.1,0.2-0.1,0.3
			v3.6c0,0.1,0,0.1-0.1,0.1H20c-0.1,0-0.1,0-0.1-0.1v-5.2c0-0.1,0-0.1,0.1-0.1h0.6c0.1,0,0.1,0,0.1,0.1v0.4c0,0.1,0,0.1,0.1,0
			c0.3-0.4,0.8-0.7,1.5-0.7C22.3,77,22.3,77,22.4,77z"/>
	</g>
	<g class="st4">
		<path d="M27.4,82.4l-1.8-8c0-0.1,0-0.1,0.1-0.1h0.7c0.1,0,0.1,0,0.1,0.1l1.5,6.6c0,0.1,0.1,0.1,0.1,0l1.5-6.6
			c0-0.1,0.1-0.1,0.1-0.1h0.6c0.1,0,0.1,0,0.1,0.1l1.5,6.6c0,0.1,0.1,0.1,0.1,0l1.5-6.6c0-0.1,0.1-0.1,0.1-0.1h0.7
			c0.1,0,0.1,0,0.1,0.1l-1.8,8c0,0.1-0.1,0.1-0.1,0.1h-0.8c-0.1,0-0.1,0-0.1-0.1l-1.5-6.3c0-0.1-0.1-0.1-0.1,0l-1.5,6.3
			c0,0.1-0.1,0.1-0.1,0.1h-0.8C27.5,82.5,27.5,82.5,27.4,82.4z"/>
		<path d="M35.6,75.2c0-0.3,0.3-0.6,0.6-0.6c0.3,0,0.6,0.3,0.6,0.6c0,0.3-0.3,0.6-0.6,0.6C35.9,75.8,35.6,75.5,35.6,75.2z
			 M35.8,82.4v-5.2c0-0.1,0-0.1,0.1-0.1h0.6c0.1,0,0.1,0,0.1,0.1v5.2c0,0.1,0,0.1-0.1,0.1h-0.6C35.8,82.5,35.8,82.5,35.8,82.4z"/>
		<path d="M41,77c0.1,0,0.1,0,0.1,0.1v0.6c0,0.1,0,0.1-0.1,0.1c-0.1,0-0.2,0-0.3,0c-0.6,0-1,0.3-1.3,0.7c-0.1,0.1-0.1,0.2-0.1,0.3
			v3.6c0,0.1,0,0.1-0.1,0.1h-0.6c-0.1,0-0.1,0-0.1-0.1v-5.2c0-0.1,0-0.1,0.1-0.1h0.6c0.1,0,0.1,0,0.1,0.1v0.4c0,0.1,0,0.1,0.1,0
			c0.3-0.4,0.8-0.7,1.5-0.7C40.8,77,40.9,77,41,77z"/>
	</g>
	<g class="st4">
		<path d="M42.5,75l0.6-0.3c0.1,0,0.1,0,0.1,0.1V77c0,0,0,0.1,0.1,0.1H44c0.1,0,0.1,0,0.1,0.1v0.5c0,0.1,0,0.1-0.1,0.1h-0.6
			c0,0-0.1,0-0.1,0.1v4.5c0,0.1,0,0.1-0.1,0.1h-0.6c-0.1,0-0.1,0-0.1-0.1v-4.5c0,0,0-0.1-0.1-0.1h-0.6c-0.1,0-0.1,0-0.1-0.1v-0.5
			c0-0.1,0-0.1,0.1-0.1h0.6c0,0,0.1,0,0.1-0.1v-1.9C42.4,75,42.4,75,42.5,75z"/>
	</g>
	<g class="st4">
		<path d="M44.9,81.3c0-0.1,0-0.1,0.1-0.1l0.6-0.2c0.1,0,0.1,0,0.2,0.1c0.2,0.5,0.6,0.8,1,0.8c0.7,0,1-0.4,1-0.9
			c0-0.5-0.4-0.8-0.9-0.9l-0.5-0.1c-0.8-0.2-1.3-0.8-1.3-1.5c0-0.9,0.7-1.6,1.8-1.6c0.8,0,1.5,0.5,1.7,1.3c0,0.1,0,0.1-0.1,0.2
			l-0.5,0.1c-0.1,0-0.1,0-0.1-0.1c-0.1-0.5-0.4-0.7-0.9-0.7c-0.6,0-0.9,0.3-0.9,0.8c0,0.5,0.3,0.7,0.8,0.8l0.5,0.1
			c0.8,0.2,1.5,0.7,1.5,1.6c0,0.9-0.7,1.6-1.8,1.6C45.8,82.6,45.2,82.1,44.9,81.3z"/>
		<path d="M52.3,77c0.9,0,1.7,0.4,2.2,1.1c0,0.1,0,0.1,0,0.2L54,78.5c-0.1,0-0.1,0-0.2,0c-0.3-0.5-0.8-0.8-1.5-0.8
			c-1.1,0-1.8,0.8-1.8,2c0,1.2,0.7,2,1.8,2c0.6,0,1.2-0.3,1.5-0.8c0-0.1,0.1-0.1,0.2,0l0.5,0.3c0.1,0,0.1,0.1,0,0.2
			c-0.4,0.8-1.3,1.1-2.2,1.1c-1.6,0-2.7-1.1-2.7-2.8C49.6,78.1,50.7,77,52.3,77z"/>
		<path d="M56.6,82.5H56c-0.1,0-0.1,0-0.1-0.1v-8.2c0-0.1,0-0.1,0.1-0.1h0.6c0.1,0,0.1,0,0.1,0.1v3.4c0,0.1,0,0.1,0.1,0
			c0.3-0.4,0.8-0.6,1.4-0.6c1.2,0,1.8,0.8,1.8,1.8v3.6c0,0.1,0,0.1-0.1,0.1h-0.6c-0.1,0-0.1,0-0.1-0.1v-3.5c0-0.8-0.4-1.2-1.1-1.2
			c-0.5,0-1,0.3-1.2,0.8c0,0.1-0.1,0.2-0.1,0.2v3.7C56.7,82.5,56.7,82.5,56.6,82.5z"/>
		<path d="M61.3,79.8c0-1.7,1.2-2.8,2.7-2.8c0.8,0,1.4,0.3,1.8,0.7c0,0,0.1,0,0.1,0v-0.5c0-0.1,0-0.1,0.1-0.1h0.6
			c0.1,0,0.1,0,0.1,0.1v5.2c0,0.1,0,0.1-0.1,0.1h-0.6c-0.1,0-0.1,0-0.1-0.1v-0.5c0,0,0-0.1-0.1,0c-0.4,0.4-1,0.7-1.8,0.7
			C62.5,82.6,61.3,81.5,61.3,79.8z M65.7,81c0-0.1,0-0.1,0-0.2v-2c0-0.1,0-0.1,0-0.2c-0.3-0.5-0.9-0.9-1.6-0.9
			c-1.2,0-1.9,0.8-1.9,2.1c0,1.2,0.8,2.1,1.9,2.1C64.8,81.8,65.5,81.5,65.7,81z"/>
		<path d="M68.6,82.4v-4.5c0,0,0-0.1-0.1-0.1h-0.5c-0.1,0-0.1,0-0.1-0.1v-0.5c0-0.1,0-0.1,0.1-0.1h0.5c0,0,0.1,0,0.1-0.1v-1.7
			c0-0.8,0.4-1.4,1.3-1.4c0.2,0,0.5,0.1,0.6,0.2c0.1,0,0.1,0.1,0.1,0.1l-0.2,0.5c0,0.1-0.1,0.1-0.2,0c-0.1-0.1-0.2-0.1-0.3-0.1
			c-0.3,0-0.5,0.2-0.5,0.6V77c0,0,0,0.1,0.1,0.1h0.7c0.1,0,0.1,0,0.1,0.1v0.5c0,0.1,0,0.1-0.1,0.1h-0.7c0,0-0.1,0-0.1,0.1v4.5
			c0,0.1,0,0.1-0.1,0.1h-0.6C68.7,82.5,68.6,82.5,68.6,82.4z"/>
		<path d="M71.9,75l0.6-0.3c0.1,0,0.1,0,0.1,0.1V77c0,0,0,0.1,0.1,0.1h0.6c0.1,0,0.1,0,0.1,0.1v0.5c0,0.1,0,0.1-0.1,0.1h-0.6
			c0,0-0.1,0-0.1,0.1v4.5c0,0.1,0,0.1-0.1,0.1h-0.6c-0.1,0-0.1,0-0.1-0.1v-4.5c0,0,0-0.1-0.1-0.1h-0.6c-0.1,0-0.1,0-0.1-0.1v-0.5
			c0-0.1,0-0.1,0.1-0.1h0.6c0,0,0.1,0,0.1-0.1v-1.9C71.8,75,71.8,75,71.9,75z"/>
	</g>
	<g class="st4">
		<path d="M14.2,91.6h0.6c0.1,0,0.1,0,0.1,0.1v5.2c0,0.1,0,0.1-0.1,0.1h-0.6c-0.1,0-0.1,0-0.1-0.1v-0.4c0-0.1,0-0.1-0.1,0
			c-0.3,0.4-0.8,0.6-1.4,0.6c-1.2,0-1.8-0.8-1.8-1.8v-3.6c0-0.1,0-0.1,0.1-0.1h0.6c0.1,0,0.1,0,0.1,0.1v3.5c0,0.8,0.4,1.2,1.1,1.2
			c0.5,0,0.9-0.3,1.2-0.8c0-0.1,0.1-0.2,0.1-0.2v-3.7C14.1,91.6,14.1,91.6,14.2,91.6z"/>
		<path d="M17.5,97h-0.6c-0.1,0-0.1,0-0.1-0.1v-5.2c0-0.1,0-0.1,0.1-0.1h0.6c0.1,0,0.1,0,0.1,0.1v0.4c0,0.1,0,0.1,0.1,0
			c0.4-0.4,0.8-0.6,1.4-0.6c1.2,0,1.8,0.8,1.8,1.8v3.6c0,0.1,0,0.1-0.1,0.1h-0.6c-0.1,0-0.1,0-0.1-0.1v-3.5c0-0.8-0.4-1.2-1.1-1.2
			c-0.5,0-0.9,0.3-1.2,0.8c0,0.1-0.1,0.2-0.1,0.2v3.7C17.6,97,17.5,97,17.5,97z"/>
		<path d="M26.8,88.5h0.6c0.1,0,0.1,0,0.1,0.1v8.2c0,0.1,0,0.1-0.1,0.1h-0.6c-0.1,0-0.1,0-0.1-0.1v-0.4c0-0.1,0-0.1-0.1,0
			c-0.4,0.4-1,0.7-1.7,0.7c-1.5,0-2.7-1.1-2.7-2.8c0-1.7,1.2-2.8,2.7-2.8c0.7,0,1.3,0.2,1.7,0.6c0.1,0.1,0.1,0,0.1,0v-3.4
			C26.7,88.6,26.7,88.5,26.8,88.5z M26.6,95.5c0-0.1,0-0.1,0-0.2v-2c0-0.1,0-0.1,0-0.2c-0.3-0.5-0.9-0.9-1.6-0.9
			c-1.2,0-1.9,0.8-1.9,2.1c0,1.2,0.8,2.1,1.9,2.1C25.7,96.3,26.3,96,26.6,95.5z"/>
	</g>
	<g class="st4">
		<path d="M36.6,88.9v0.6c0,0.1,0,0.1-0.1,0.1h-2c0,0-0.1,0-0.1,0.1v7.2c0,0.1,0,0.1-0.1,0.1h-0.6c-0.1,0-0.1,0-0.1-0.1v-7.2
			c0,0,0-0.1-0.1-0.1h-2c-0.1,0-0.1,0-0.1-0.1v-0.6c0-0.1,0-0.1,0.1-0.1h5.1C36.5,88.8,36.6,88.9,36.6,88.9z"/>
	</g>
	<g class="st4">
		<path d="M36.4,94.3c0-1.7,1.1-2.8,2.6-2.8s2.6,1.1,2.6,2.7c0,0.1,0,0.2,0,0.3c0,0.1,0,0.1-0.1,0.1h-4.1c-0.1,0-0.1,0-0.1,0.2
			c0.1,1,0.8,1.7,1.9,1.7c0.6,0,1.2-0.3,1.5-0.7c0.1-0.1,0.1-0.1,0.2,0l0.4,0.4c0,0,0,0.1,0,0.2c-0.6,0.6-1.3,0.9-2.1,0.9
			C37.5,97.1,36.4,96,36.4,94.3z M40.7,93.7c-0.2-0.9-0.8-1.5-1.7-1.5c-0.9,0-1.6,0.6-1.7,1.5c0,0.1,0,0.1,0.1,0.1h3.2
			C40.7,93.8,40.8,93.8,40.7,93.7z"/>
		<path d="M45.3,91.5c0.9,0,1.7,0.4,2.2,1.1c0,0.1,0,0.1,0,0.2L47,93c-0.1,0-0.1,0-0.2,0c-0.3-0.5-0.8-0.8-1.5-0.8
			c-1.1,0-1.8,0.8-1.8,2c0,1.2,0.7,2,1.8,2c0.6,0,1.2-0.3,1.5-0.8c0-0.1,0.1-0.1,0.2,0l0.5,0.3c0.1,0,0.1,0.1,0,0.2
			c-0.4,0.8-1.3,1.1-2.2,1.1c-1.6,0-2.7-1.1-2.7-2.8C42.6,92.6,43.7,91.5,45.3,91.5z"/>
		<path d="M49.6,97H49c-0.1,0-0.1,0-0.1-0.1v-8.2c0-0.1,0-0.1,0.1-0.1h0.6c0.1,0,0.1,0,0.1,0.1V92c0,0.1,0,0.1,0.1,0
			c0.3-0.4,0.8-0.6,1.4-0.6c1.2,0,1.8,0.8,1.8,1.8v3.6c0,0.1,0,0.1-0.1,0.1h-0.6c-0.1,0-0.1,0-0.1-0.1v-3.5c0-0.8-0.4-1.2-1.1-1.2
			c-0.5,0-1,0.3-1.2,0.8c0,0.1-0.1,0.2-0.1,0.2v3.7C49.7,97,49.6,97,49.6,97z"/>
		<path d="M55.4,97h-0.6c-0.1,0-0.1,0-0.1-0.1v-5.2c0-0.1,0-0.1,0.1-0.1h0.6c0.1,0,0.1,0,0.1,0.1v0.4c0,0.1,0,0.1,0.1,0
			c0.4-0.4,0.8-0.6,1.4-0.6c1.2,0,1.8,0.8,1.8,1.8v3.6c0,0.1,0,0.1-0.1,0.1h-0.6C58,97,58,97,58,96.9v-3.5c0-0.8-0.4-1.2-1.1-1.2
			c-0.5,0-0.9,0.3-1.2,0.8c0,0.1-0.1,0.2-0.1,0.2v3.7C55.5,97,55.5,97,55.4,97z"/>
		<path d="M60.1,94.3c0-1.6,1.2-2.8,2.7-2.8c1.6,0,2.7,1.3,2.7,2.8s-1.2,2.8-2.7,2.8C61.3,97.1,60.1,95.8,60.1,94.3z M64.7,94.3
			c0-1.1-0.8-2-1.9-2s-1.9,0.9-1.9,2c0,1.1,0.8,2,1.9,2S64.7,95.4,64.7,94.3z"/>
	</g>
	<g class="st4">
		<path d="M68.5,96.4v0.5c0,0.1,0,0.1-0.1,0.1h-0.2C67.4,97,67,96.7,67,96v-7.3c0-0.1,0-0.1,0.1-0.1h0.6c0.1,0,0.1,0,0.1,0.1v7.2
			c0,0.3,0.1,0.4,0.4,0.4h0.2C68.4,96.3,68.5,96.3,68.5,96.4z"/>
	</g>
	<g class="st4">
		<path d="M69.3,94.3c0-1.6,1.2-2.8,2.7-2.8c1.6,0,2.7,1.3,2.7,2.8s-1.2,2.8-2.7,2.8C70.4,97.1,69.3,95.8,69.3,94.3z M73.9,94.3
			c0-1.1-0.8-2-1.9-2c-1.1,0-1.9,0.9-1.9,2c0,1.1,0.8,2,1.9,2C73.1,96.3,73.9,95.4,73.9,94.3z"/>
		<path d="M76.3,98.5c0-0.1,0-0.1,0-0.2l0.4-0.4c0-0.1,0.1-0.1,0.2,0c0.3,0.4,0.9,0.7,1.6,0.7c1.1,0,1.7-0.5,1.7-1.5v-0.8
			c0-0.1-0.1-0.1-0.1,0c-0.4,0.4-1,0.6-1.7,0.6c-1.5,0-2.6-1.1-2.6-2.7c0-1.6,1.2-2.7,2.6-2.7c0.7,0,1.3,0.2,1.7,0.7
			c0.1,0.1,0.1,0,0.1,0v-0.4c0-0.1,0.1-0.1,0.1-0.1h0.6c0.1,0,0.1,0,0.1,0.1v5.5c0,1.5-1.1,2.2-2.6,2.2C77.5,99.4,76.8,99,76.3,98.5
			z M80.1,95.3c0-0.1,0.1-0.1,0.1-0.2v-1.8c0-0.1,0-0.1-0.1-0.2c-0.3-0.5-0.9-0.8-1.6-0.8c-1.1,0-1.9,0.8-1.9,1.9
			c0,1.2,0.8,1.9,1.9,1.9C79.3,96.1,79.8,95.8,80.1,95.3z"/>
		<path d="M82.6,89.7c0-0.3,0.3-0.6,0.6-0.6c0.3,0,0.6,0.3,0.6,0.6c0,0.3-0.3,0.6-0.6,0.6C82.9,90.3,82.6,90,82.6,89.7z M82.8,96.9
			v-5.2c0-0.1,0-0.1,0.1-0.1h0.6c0.1,0,0.1,0,0.1,0.1v5.2c0,0.1,0,0.1-0.1,0.1h-0.6C82.8,97,82.8,97,82.8,96.9z"/>
		<path d="M85,94.3c0-1.7,1.1-2.8,2.6-2.8s2.6,1.1,2.6,2.7c0,0.1,0,0.2,0,0.3c0,0.1,0,0.1-0.1,0.1H86c-0.1,0-0.1,0-0.1,0.2
			c0.1,1,0.8,1.7,1.9,1.7c0.6,0,1.2-0.3,1.5-0.7c0.1-0.1,0.1-0.1,0.2,0l0.4,0.4c0,0,0,0.1,0,0.2c-0.6,0.6-1.3,0.9-2.1,0.9
			C86.2,97.1,85,96,85,94.3z M89.4,93.7c-0.2-0.9-0.8-1.5-1.7-1.5c-0.9,0-1.6,0.6-1.7,1.5c0,0.1,0,0.1,0.1,0.1h3.2
			C89.4,93.8,89.4,93.8,89.4,93.7z"/>
	</g>
</g>
</svg>
