<svg aria-labelledby="button" class="cursor-pointer" width="123" height="21" viewBox="0 0 123 21" fill="none" xmlns="http://www.w3.org/2000/svg"><path fill-rule="evenodd" clip-rule="evenodd" d="M9.50867 0C12.68 0 15.2892 2.40956 15.6026 5.49857L20.6984 9.03761L14.4942 10.5383C14.0038 12.2457 13.5958 14.235 13.3559 16.5272L0 16.5202C1.0857 6.12547 3.99434 2.97168 5.18687 1.78441C6.37939 0.597137 7.82233 0 9.50867 0ZM7.59818 6.13773C7.59818 7.36703 8.59458 8.36343 9.82387 8.36343C11.0514 8.36343 12.0478 7.36703 12.0496 6.13773C12.0496 4.90843 11.0532 3.91204 9.82387 3.91204C8.59458 3.91204 7.59818 4.90843 7.59818 6.13773ZM72.4669 10.324V16.5265H67.2135V10.324C67.2135 9.47293 66.5218 8.78298 65.6725 8.78298H57.0972V16.5265H51.8438V0.00102785H57.0972V3.52957H65.6725C69.42 3.52957 72.4669 6.57655 72.4669 10.324ZM48.1907 8.78759H35.8522C35.1675 8.78759 34.6089 9.3462 34.6089 10.0309C34.6089 10.7173 35.1675 11.2742 35.8522 11.2742H48.1907V16.5276H35.8522C32.2641 16.5276 29.3555 13.619 29.3555 10.0309C29.3555 6.44282 32.2641 3.53418 35.8522 3.53418H48.1907V8.78759ZM100.903 3.53418H115.869C119.457 3.53418 122.365 6.44282 122.365 10.0309C122.365 13.619 119.457 16.5276 115.869 16.5276H106.157V20.0509H100.903V3.53418ZM106.157 11.2742H115.869C116.553 11.2742 117.112 10.7156 117.112 10.0309C117.112 9.34445 116.553 8.78759 115.869 8.78759H106.157V11.2742ZM76.1211 16.5293V3.53586H81.3745V16.5293H76.1211ZM98.1259 3.53418V8.78759L90.4595 10.6666V16.5276H85.2061V3.53418H90.4595V5.41315L98.1259 3.53418Z" fill="black"></path></svg>
