<?xml version="1.0" encoding="UTF-8"?>
<svg enable-background="new 0 0 436.54 113.39" version="1.1" viewBox="0 0 436.54 113.39" xml:space="preserve" xmlns="http://www.w3.org/2000/svg">
<style type="text/css">
	.st0{display:none;}
	.st1{display:inline;fill:#4764AF;}
	.st2{font-family:'CoolveticaRg-Regular';}
	.st3{font-size:53.6682px;}
	.st4{display:inline;fill:#414042;}
	.st5{fill:#4764AF;}
	.st6{fill:#414042;}
	.st7{fill-rule:evenodd;clip-rule:evenodd;fill:#414042;}
	.st8{fill-rule:evenodd;clip-rule:evenodd;fill:#4764AF;}
</style>
<text class="st0" transform="translate(121.13 69.932)"><tspan class="st1 st2 st3" x="0" y="0">german</tspan><tspan class="st4 st2 st3" x="164.92" y="0">drones</tspan></text>

	<path class="st5" d="m140.94 66.35c-0.5 1.18-1.4 2.1-2.71 2.76s-2.82 0.99-4.53 0.99c-2.18 0-4.02-0.38-5.5-1.15s-2.68-1.78-3.6-3.03c-0.91-1.25-1.57-2.7-1.99-4.35-0.41-1.65-0.62-3.33-0.62-5.04 0-2.04 0.3-3.91 0.91-5.61s1.43-3.15 2.47-4.35 2.25-2.13 3.65-2.79 2.9-0.99 4.51-0.99c3.29 0 5.76 1.32 7.41 3.97v-3.27h6.98v26.67c0 2-0.34 3.77-1.02 5.29s-1.61 2.79-2.79 3.81-2.58 1.8-4.19 2.33c-1.61 0.54-3.33 0.81-5.15 0.81s-3.52-0.26-5.1-0.78c-1.57-0.52-2.92-1.25-4.05-2.2s-2.01-2.1-2.66-3.46c-0.64-1.36-0.97-2.9-0.97-4.62h6.49c0 1.61 0.53 2.85 1.58 3.73 1.06 0.88 2.46 1.32 4.21 1.32 1.86 0 3.43-0.51 4.72-1.53s1.93-2.41 1.93-4.16v-4.35zm-5.75-1.72c1.72 0 3.14-0.65 4.27-1.96s1.69-3.09 1.69-5.34c0-5.65-1.99-8.48-5.96-8.48s-5.96 2.68-5.96 8.05c0 2.36 0.56 4.24 1.69 5.63s2.56 2.1 4.27 2.1z"/>
	<path class="st5" d="m157.09 58.51c0.11 2 0.69 3.6 1.74 4.78 1.06 1.18 2.44 1.77 4.16 1.77 1.14 0 2.15-0.26 3.03-0.78s1.44-1.24 1.69-2.17h7.19c-0.82 2.72-2.25 4.81-4.29 6.28s-4.47 2.2-7.3 2.2c-8.8 0-13.2-4.79-13.2-14.38 0-2.04 0.29-3.88 0.86-5.53s1.4-3.06 2.5-4.24c1.09-1.18 2.42-2.08 4-2.71 1.57-0.63 3.38-0.94 5.42-0.94 4.08 0 7.16 1.31 9.26 3.92 2.09 2.61 3.14 6.55 3.14 11.81h-18.2zm11-4.4c-0.04-0.97-0.21-1.82-0.51-2.55s-0.71-1.34-1.21-1.82-1.07-0.84-1.72-1.07c-0.64-0.23-1.31-0.35-1.99-0.35-1.4 0-2.6 0.51-3.62 1.53s-1.6 2.44-1.74 4.27h10.79z"/>
	<path class="st5" d="m177.43 69.89v-26.4h6.55v3.17c0.57-0.89 1.17-1.59 1.8-2.09s1.27-0.89 1.93-1.15c0.66-0.27 1.33-0.44 2.01-0.51s1.38-0.11 2.09-0.11h0.91v7.14c-0.64-0.11-1.29-0.16-1.93-0.16-4.26 0-6.39 2.13-6.39 6.39v13.74h-6.97z"/>
	<path class="st5" d="m225.3 69.89v-15.99c0-1.61-0.38-2.92-1.13-3.92s-1.75-1.5-3.01-1.5c-1.29 0-2.35 0.54-3.19 1.61s-1.26 2.42-1.26 4.03v15.78h-6.98v-15.9c0-1.07-0.07-1.95-0.21-2.63s-0.38-1.22-0.72-1.61-0.78-0.67-1.31-0.83c-0.54-0.16-1.18-0.24-1.93-0.24-2.83 0-4.24 1.72-4.24 5.15v16.05h-6.98v-26.4h6.55v3.86c0.89-1.75 1.97-2.95 3.22-3.6 1.25-0.64 2.75-0.97 4.51-0.97 0.89 0 1.69 0.07 2.39 0.21s1.32 0.38 1.88 0.72 1.08 0.78 1.58 1.31c0.5 0.54 1 1.18 1.5 1.93 0.72-1.47 1.66-2.53 2.84-3.19s2.61-0.99 4.29-0.99c1.32 0 2.54 0.22 3.65 0.67s2.06 1.07 2.84 1.88c0.79 0.8 1.4 1.74 1.85 2.82s0.67 2.22 0.67 3.43v18.3h-6.81z"/>
	<path class="st5" d="m251.44 69.89c-0.21-0.68-0.36-1.47-0.43-2.36-0.82 0.93-1.91 1.67-3.27 2.23-1.36 0.55-2.93 0.83-4.72 0.83-3.04 0-5.27-0.67-6.68-2.01s-2.12-3.09-2.12-5.23c0-1.9 0.3-3.41 0.91-4.53 0.61-1.13 1.45-2.01 2.52-2.66 1.07-0.64 2.35-1.12 3.84-1.42 1.48-0.3 3.1-0.58 4.86-0.83 1.75-0.25 2.93-0.58 3.54-0.99s0.91-1.08 0.91-2.01c0-0.86-0.4-1.53-1.21-2.01s-1.89-0.72-3.25-0.72c-1.61 0-2.76 0.36-3.46 1.07-0.7 0.72-1.14 1.66-1.31 2.84h-6.49c0.04-1.36 0.26-2.61 0.67-3.76s1.07-2.13 1.99-2.95c0.91-0.82 2.1-1.46 3.57-1.91s3.25-0.67 5.37-0.67c2.07 0 3.84 0.23 5.29 0.7s2.61 1.14 3.49 2.01c0.88 0.88 1.51 1.97 1.91 3.27 0.39 1.31 0.59 2.78 0.59 4.43v16.69h-6.52zm-0.49-12.93c-0.36 0.36-0.88 0.64-1.56 0.86s-1.66 0.45-2.95 0.7c-2 0.39-3.38 0.9-4.13 1.5-0.75 0.61-1.13 1.49-1.13 2.63 0 1.97 1.13 2.95 3.38 2.95 0.89 0 1.73-0.15 2.5-0.46 0.77-0.3 1.43-0.71 1.99-1.23 0.55-0.52 1-1.13 1.34-1.82 0.34-0.7 0.51-1.44 0.51-2.23l0.05-2.9z"/>
	<path class="st5" d="m277.63 69.89v-15.99c0-2.04-0.34-3.42-1.02-4.13s-1.84-1.07-3.49-1.07c-3.61 0-5.42 2.02-5.42 6.06v15.13h-6.98v-26.4h6.65v3.86c0.82-1.5 1.91-2.64 3.27-3.41s3.11-1.15 5.26-1.15c1.25 0 2.42 0.19 3.49 0.56s1.99 0.94 2.76 1.69 1.38 1.67 1.82 2.76c0.45 1.09 0.67 2.35 0.67 3.78v18.3h-7.01z"/>
	<path class="st6" d="m305.75 69.89-0.05-3.22c-1.61 2.61-4.06 3.92-7.35 3.92-1.68 0-3.22-0.32-4.62-0.97-1.4-0.64-2.59-1.57-3.6-2.79-1-1.22-1.79-2.7-2.36-4.45s-0.86-3.74-0.86-5.96c0-2 0.24-3.84 0.72-5.5s1.19-3.1 2.12-4.32 2.07-2.16 3.41-2.82 2.87-0.99 4.59-0.99c3.26 0 5.87 1.38 7.84 4.13v-13.1h6.87v36.07h-6.71zm-5.8-4.99c1.68 0 3.09-0.7 4.21-2.09 1.13-1.4 1.69-3.22 1.69-5.47 0-5.72-1.95-8.59-5.85-8.59-4.01 0-6.01 2.72-6.01 8.16 0 2.36 0.55 4.29 1.66 5.77 1.12 1.48 2.55 2.22 4.3 2.22z"/>
	<path class="st6" d="m315.25 69.89v-26.4h6.55v3.17c0.57-0.89 1.17-1.59 1.8-2.09 0.62-0.5 1.27-0.89 1.93-1.15 0.66-0.27 1.33-0.44 2.01-0.51s1.38-0.11 2.09-0.11h0.91v7.14c-0.64-0.11-1.29-0.16-1.93-0.16-4.26 0-6.39 2.13-6.39 6.39v13.74h-6.97z"/>
	<path class="st6" d="m343.74 70.59c-2.15 0-4.06-0.34-5.74-1.02s-3.1-1.63-4.27-2.84c-1.16-1.22-2.05-2.68-2.66-4.4s-0.91-3.6-0.91-5.63c0-2.08 0.31-3.97 0.94-5.69s1.53-3.18 2.71-4.4 2.6-2.16 4.27-2.82c1.66-0.66 3.55-0.99 5.66-0.99 2.08 0 3.94 0.33 5.58 0.99s3.05 1.59 4.21 2.79 2.06 2.66 2.68 4.37c0.62 1.72 0.94 3.63 0.94 5.74s-0.31 4.02-0.94 5.72-1.52 3.16-2.68 4.37c-1.16 1.22-2.58 2.16-4.24 2.82-1.65 0.66-3.5 0.99-5.55 0.99zm0-5.85c4.26 0 6.39-2.68 6.39-8.05 0-5.33-2.13-8-6.39-8s-6.39 2.67-6.39 8c0.01 5.36 2.14 8.05 6.39 8.05z"/>
	<path class="st6" d="m376.32 69.89v-15.99c0-2.04-0.34-3.42-1.02-4.13s-1.84-1.07-3.49-1.07c-3.61 0-5.42 2.02-5.42 6.06v15.13h-6.98v-26.4h6.65v3.86c0.82-1.5 1.91-2.64 3.27-3.41s3.11-1.15 5.26-1.15c1.25 0 2.42 0.19 3.49 0.56s1.99 0.94 2.76 1.69 1.38 1.67 1.82 2.76 0.67 2.35 0.67 3.78v18.3h-7.01z"/>
	<path class="st6" d="m392.53 58.51c0.11 2 0.69 3.6 1.74 4.78s2.44 1.77 4.16 1.77c1.14 0 2.16-0.26 3.03-0.78 0.88-0.52 1.44-1.24 1.69-2.17h7.19c-0.82 2.72-2.25 4.81-4.29 6.28s-4.47 2.2-7.3 2.2c-8.8 0-13.2-4.79-13.2-14.38 0-2.04 0.29-3.88 0.86-5.53s1.4-3.06 2.5-4.24c1.09-1.18 2.42-2.08 4-2.71s3.38-0.94 5.42-0.94c4.08 0 7.17 1.31 9.26 3.92s3.14 6.55 3.14 11.81h-18.2zm11-4.4c-0.04-0.97-0.21-1.82-0.51-2.55s-0.71-1.34-1.21-1.82-1.07-0.84-1.72-1.07c-0.64-0.23-1.31-0.35-1.99-0.35-1.4 0-2.6 0.51-3.62 1.53s-1.6 2.44-1.75 4.27h10.8z"/>
	<path class="st6" d="m428.75 51.48c-0.18-1.22-0.64-2.1-1.37-2.66-0.73-0.55-1.85-0.83-3.35-0.83-1.43 0-2.51 0.17-3.25 0.51-0.73 0.34-1.1 0.92-1.1 1.74 0 0.72 0.37 1.29 1.1 1.72s1.8 0.84 3.19 1.23c2.29 0.64 4.22 1.19 5.8 1.64 1.57 0.45 2.83 0.97 3.78 1.58s1.63 1.37 2.04 2.28 0.62 2.14 0.62 3.68c0 2.36-0.98 4.32-2.95 5.88s-4.88 2.33-8.75 2.33c-1.9 0-3.61-0.21-5.15-0.64s-2.85-1.05-3.95-1.85c-1.09-0.8-1.93-1.77-2.52-2.9s-0.9-2.39-0.94-3.78h7.19c0 1.25 0.49 2.22 1.48 2.9 0.98 0.68 2.26 1.02 3.84 1.02 1.32 0 2.46-0.21 3.41-0.62s1.42-1.05 1.42-1.91c0-0.97-0.35-1.66-1.05-2.09s-1.76-0.8-3.19-1.13c-2.58-0.57-4.65-1.17-6.23-1.8-1.58-0.62-2.8-1.31-3.68-2.07-0.88-0.75-1.47-1.57-1.77-2.47-0.3-0.89-0.46-1.9-0.46-3.01 0-1 0.21-1.95 0.62-2.84s1.06-1.68 1.96-2.36c0.89-0.68 2.06-1.22 3.49-1.64 1.43-0.41 3.18-0.62 5.26-0.62 3.79 0 6.56 0.77 8.32 2.31 1.75 1.54 2.72 3.67 2.9 6.39h-6.71z"/>


	<path class="st5" d="m93.94 13.92c-0.62-0.55-1.26-1.09-1.91-1.6-4.3-3.4-9.01-6.15-13.91-8.15-1.21-0.53-2.46-0.94-3.7-1.38-1.25-0.37-2.49-0.78-3.75-1.07-2.5-0.66-5.04-1.06-7.54-1.37-1.26-0.11-2.49-0.26-3.77-0.29-0.62-0.02-1.26-0.06-1.87-0.06-0.6 0.01-1.19 0.01-1.79 0.02-1.27-0.01-2.45 0.12-3.67 0.17-1.2 0.14-2.4 0.23-3.58 0.42-9.44 1.39-17.82 5.11-24.49 9.84-6.66 4.79-11.7 10.46-15.2 16.05-0.48 0.76-0.93 1.52-1.35 2.27 0.44-0.4 0.89-0.78 1.34-1.16 0.17-0.26 0.33-0.52 0.52-0.78 3.68-5.36 8.81-10.84 15.59-15.05 3.37-2.1 7.11-3.92 11.14-5.31 4.03-1.38 8.37-2.24 12.84-2.6 1.12-0.1 2.25-0.11 3.38-0.16 1.13 0.03 2.3-0.01 3.4 0.08 0.59 0.04 1.19 0.07 1.78 0.11s1.13 0.12 1.71 0.18c1.12 0.1 2.28 0.32 3.43 0.5 4.57 0.85 9.13 2.32 13.45 4.42 2.86 1.36 5.6 3.02 8.19 4.93 3.37-0.01 6.6-0.02 9.76-0.01z"/>
	<path class="st5" d="m107.56 31.65c-1.33 2.41-3.01 4.54-5.04 6.39 0.47 1.25 0.91 2.52 1.29 3.81 0.71 2.4 1.2 4.86 1.58 7.33 0.36 2.48 0.5 4.99 0.53 7.5 0.04 10.05-2.94 20.03-8.29 28.39-5.35 8.37-13 15.13-21.66 19.28-4.32 2.09-8.87 3.56-13.46 4.41-1.15 0.18-2.29 0.4-3.45 0.51-1.15 0.15-2.3 0.23-3.44 0.29l-0.81 0.05-0.89 0.01c-0.59 0-1.18 0.01-1.76 0.02-1.13-0.05-2.22-0.06-3.34-0.16-4.47-0.36-8.81-1.22-12.84-2.6-4.03-1.39-7.76-3.2-11.14-5.31-5.19-3.24-9.44-7.2-12.8-11.29-0.65-0.43-1.28-0.89-1.91-1.36 3.4 4.89 7.96 9.81 13.81 14 6.67 4.73 15.06 8.46 24.51 9.85 1.17 0.19 2.41 0.29 3.62 0.42 0.58 0.04 1.17 0.07 1.76 0.11l0.89 0.05 0.96 0.01c1.23 0.02 2.46 0.03 3.71-0.05 1.25-0.03 2.49-0.17 3.75-0.28 2.5-0.31 5.04-0.71 7.54-1.37 1.27-0.28 2.5-0.7 3.76-1.07 1.23-0.45 2.48-0.85 3.7-1.39 4.9-2 9.61-4.75 13.91-8.15 4.28-3.43 8.15-7.52 11.33-12.17 6.44-9.25 10.01-20.73 10-32.22 0-8.64-2.03-17.31-5.82-25.01z"/>
	<path class="st7" d="m70.77 19.26c-8.55 0.41-19.26-0.8-29.91 0.6-18.09 2.36-32.94 18.38-33.44 35.91-0.56 19.7 12.46 36.19 31.47 39.66 7.37 1.35 14.87 1.7 22.21 0.11 7.9-1.7 12.55-6.99 14.53-14.77 0.79-3.14-0.19-4.4-3.5-4.35-8.16 0.12 7.1 0.03-24.48 0.03-11.13-0.05-19.25-7.14-20.14-17.53-0.83-9.65 6.63-18.65 17.61-19.44 11.9-0.85 23.89-0.38 35.84-0.45 4.77-0.03 9.53 0.27 13.96-2.27 4.92-2.82 8.09-6.9 9.64-12.27 1.17-4.06 0.38-5.18-3.82-5.22-9.27-0.07-18.56-0.01-29.97-0.01z"/>
	<path class="st8" d="m75.27 47.91c-6.19 0-20.89-0.06-27.08 0.02-6.99 0.08-11.83 4.3-11.69 10.03 0.14 5.84 4.6 9.57 11.57 9.6 7.88 0.03 24.27 0.12 32.15-0.03 8.84-0.16 16.63-6.84 18.41-15.24 0.68-3.21-0.29-4.49-3.52-4.4-3.37 0.09-6.75 0.01-10.13 0.01-3.24 0-6.48 0-9.71 0.01z"/>

</svg>
