<?xml version="1.0" encoding="UTF-8"?> <svg xmlns="http://www.w3.org/2000/svg" viewBox="0 0 99 39" fill="none" class="styles_logo__KTOhW styles_Logo__CZHNS styles_white__ZbwZT"> <path d="M13.058 38.415l5.024-5.645c.085-.085.028-.226-.113-.226h-5.532a.214.214 0 01-.113-.056l-4.685-5.25c-.028-.056-.057-.113-.028-.17l7.846-13.463c.028-.056.028-.113 0-.14l-3.246-5.59c-.056-.084-.197-.084-.254 0L.357 27.804a.18.18 0 000 .169L9.67 38.443c.028.029.056.057.113.057h3.161c.028-.028.085-.056.113-.085z" fill="#0C152E"></path> <path d="M16.501.086l-3.274 5.588c-.028.057-.028.113 0 .141l3.387 5.815 8.976 15.41c.028.057.028.114-.028.17l-4.742 5.306-5.053 5.702c-.084.085-.028.226.113.226h7.565a.215.215 0 00.113-.057l9.314-10.471c.028-.057.056-.113.028-.17L16.727.086c-.028-.113-.17-.113-.226 0zM46.844 30.625V12.674a.14.14 0 00-.254-.085l-5.476 6.125c-.028.028-.028.056-.028.084v17.613c0 .085.056.141.141.141H55.057c.085 0 .142-.056.142-.141v-5.504c0-.085-.057-.141-.142-.141h-8.072c-.056 0-.141-.056-.141-.141zM63.159 36.41V19.59a.14.14 0 00-.254-.085l-5.476 6.125c-.028.028-.028.056-.028.084v10.698c0 .084.056.141.141.141h5.476c.084 0 .14-.085.14-.141zM92.795 27.971a.18.18 0 010-.169l5.617-8.354c.056-.085 0-.226-.113-.226h-6.295c-.056 0-.084.028-.112.056l-4.15 6.718a.14.14 0 01-.254-.085V12.645a.14.14 0 00-.254-.085l-5.475 6.125c-.028.029-.028.057-.028.085v17.64c0 .086.056.142.14.142h5.476c.085 0 .141-.056.141-.141V29.665a.14.14 0 01.255-.085l4.6 6.916a.214.214 0 00.113.056h6.097c.113 0 .17-.141.113-.226l-5.871-8.355zM72.444 36.89c3.557 0 7.339-1.495 7.339-5.672 0-4.178-3.5-4.968-6.069-5.56-1.41-.34-2.54-.594-2.54-1.356 0-.592.536-.96 1.411-.96.904 0 1.637.452 2.146 1.327.028.057.112.085.169.057l4.346-1.948c.085-.028.113-.113.057-.197-1.327-2.428-3.641-3.67-6.859-3.67-4.657-.028-6.774 2.823-6.774 5.645 0 3.867 3.444 4.742 5.956 5.391 1.467.367 2.512.65 2.512 1.383 0 .48-.282 1.073-1.694 1.073-1.298 0-2.23-.564-2.71-1.694-.028-.084-.112-.112-.197-.084l-4.488 2.258c-.085.028-.113.113-.056.197 1.27 2.569 3.726 3.81 7.451 3.81z" fill="#0C152E"></path> </svg> 