<svg xmlns="http://www.w3.org/2000/svg" viewBox="0 0 1598.3 201.94">
  <defs>
    <style>
      .a {
        fill: #fab608;
      }

      .b {
        fill: #2e3859;
      }
    </style>
  </defs>
  <g>
    <path class="a" d="M97.22,49.31a53.09,53.09,0,0,1,20.65,20.75q7.48,13.36,7.48,31.12t-7.48,31.13a53.09,53.09,0,0,1-20.65,20.75A58.64,58.64,0,0,1,68,160.44q-22,0-34.65-13.91v53.7H0V43.64H31.87V56.9q12.4-15,36.15-15A58.64,58.64,0,0,1,97.22,49.31Zm-13.9,75.08q8.24-8.65,8.23-23.21T83.32,78q-8.23-8.67-21.07-8.67T41.18,78q-8.24,8.65-8.24,23.2t8.24,23.21q8.24,8.67,21.07,8.67T83.32,124.39Z"/>
    <path class="a" d="M235.09,54.66q14.32,12.74,14.33,38.4v65.67H218.19V144.39q-9.42,16.05-35.08,16.05-13.28,0-23-4.49a34.35,34.35,0,0,1-14.87-12.41,32.33,32.33,0,0,1-5.13-18q0-16,12.09-25.24t37.32-9.2h26.53q0-10.9-6.63-16.79t-19.9-5.88a58.17,58.17,0,0,0-18.07,2.88,47.84,47.84,0,0,0-15.08,7.81l-12-23.32A72.38,72.38,0,0,1,167,45.57,100.81,100.81,0,0,1,194,41.93Q220.75,41.93,235.09,54.66ZM206.64,134a21.67,21.67,0,0,0,9.41-11.66V110.6H193.16q-20.53,0-20.54,13.47a12,12,0,0,0,5,10.16q5,3.75,13.8,3.75A29.09,29.09,0,0,0,206.64,134Z"/>
    <path class="a" d="M393.81,43.64l-52,122.15q-7.92,19.89-19.58,28t-28.13,8.13a58.57,58.57,0,0,1-17.75-2.78,39.34,39.34,0,0,1-14.33-7.7l12.19-23.75a28.69,28.69,0,0,0,8.88,5.35,27.69,27.69,0,0,0,9.94,1.92c4.57,0,8.27-1.1,11.13-3.31s5.42-5.88,7.7-11l.43-1.07L262.47,43.64h34.44l32.3,78.08,32.51-78.08Z"/>
    <path class="a" d="M589.21,54.66q12.74,12.74,12.73,38.18v65.89H568.57V98q0-13.7-5.67-20.43t-16.15-6.74q-11.76,0-18.61,7.59T521.3,101v57.76H487.93V98q0-27.17-21.82-27.17-11.55,0-18.4,7.59T440.87,101v57.76H407.5V43.64h31.87V56.9a42.28,42.28,0,0,1,15.72-11.12,52.88,52.88,0,0,1,20.43-3.85,49.44,49.44,0,0,1,22,4.81,39,39,0,0,1,15.83,14,47.25,47.25,0,0,1,17.86-13.91,56.35,56.35,0,0,1,23.64-4.92Q576.48,41.93,589.21,54.66Z"/>
    <path class="a" d="M744,110.6H656.92A27.08,27.08,0,0,0,668,127.5q8.78,6.19,21.82,6.2A44.28,44.28,0,0,0,705.8,131a38.83,38.83,0,0,0,12.94-8.45l17.75,19.25q-16.26,18.6-47.49,18.61-19.46,0-34.44-7.6a55.63,55.63,0,0,1-23.1-21.07,58,58,0,0,1-8.13-30.59,58.9,58.9,0,0,1,8-30.48,56.33,56.33,0,0,1,22-21.18,68.25,68.25,0,0,1,61.93-.32,53.13,53.13,0,0,1,21.49,20.86q7.82,13.59,7.81,31.55C744.62,102,744.41,105,744,110.6Zm-78.08-37q-7.7,6.42-9.41,17.54h56.69q-1.73-10.9-9.42-17.43t-18.82-6.53Q673.6,67.17,665.9,73.59Z"/>
    <path class="a" d="M871.36,54.77q13.15,12.82,13.16,38.07v65.89H851.15V98q0-13.7-6-20.43t-17.33-6.74q-12.62,0-20.11,7.81t-7.48,23.21v56.9H766.87V43.64h31.87V57.12a44.25,44.25,0,0,1,16.47-11.23,57.36,57.36,0,0,1,21.61-4Q858.2,41.93,871.36,54.77Z"/>
    <path class="a" d="M988.91,153.17a34.42,34.42,0,0,1-12.09,5.45,61.26,61.26,0,0,1-15.08,1.82q-20.54,0-31.77-10.48t-11.23-30.81V71.88H901V46.21h17.75v-28h33.37v28h28.67V71.88H952.11v46.85q0,7.26,3.75,11.23t10.59,3.95a21.45,21.45,0,0,0,13.47-4.27Z"/>
    <path class="b" d="M1086.24,153.17a34.42,34.42,0,0,1-12.09,5.45,61.26,61.26,0,0,1-15.08,1.82q-20.53,0-31.77-10.48t-11.23-30.81V71.88H998.32V46.21h17.75v-28h33.37v28h28.67V71.88h-28.67v46.85q0,7.26,3.75,11.23t10.59,3.95a21.45,21.45,0,0,0,13.47-4.27Z"/>
    <path class="b" d="M1127.2,152.84a56.38,56.38,0,0,1-22.57-21.07,58,58,0,0,1-8.12-30.59,58.08,58.08,0,0,1,8.12-30.59,56.52,56.52,0,0,1,22.57-21.07q14.44-7.59,32.62-7.59t32.52,7.59a56.74,56.74,0,0,1,22.46,21.07,58.09,58.09,0,0,1,8.13,30.59,58,58,0,0,1-8.13,30.59,56.6,56.6,0,0,1-22.46,21.07q-14.34,7.6-32.52,7.6T1127.2,152.84Zm53.69-28.45q8.23-8.65,8.24-23.21T1180.89,78q-8.23-8.67-21.07-8.67T1138.64,78q-8.34,8.65-8.34,23.2t8.34,23.21q8.35,8.67,21.18,8.67T1180.89,124.39Z"/>
    <path class="b" d="M1267.31,152.84a56.45,56.45,0,0,1-22.57-21.07,58,58,0,0,1-8.12-30.59,58.08,58.08,0,0,1,8.12-30.59,56.58,56.58,0,0,1,22.57-21.07q14.45-7.59,32.62-7.59t32.52,7.59a56.74,56.74,0,0,1,22.46,21.07,58.09,58.09,0,0,1,8.13,30.59,58,58,0,0,1-8.13,30.59,56.6,56.6,0,0,1-22.46,21.07q-14.34,7.6-32.52,7.6T1267.31,152.84ZM1321,124.39q8.24-8.65,8.24-23.21T1321,78q-8.24-8.67-21.07-8.67T1278.76,78q-8.35,8.65-8.35,23.2t8.35,23.21q8.34,8.67,21.17,8.67T1321,124.39Z"/>
    <path class="b" d="M1385.28,0h33.38V158.73h-33.38Z"/>
    <path class="b" d="M1460.37,156.91q-13.69-3.53-21.82-8.88l11.12-24a69.56,69.56,0,0,0,18.61,8,77.9,77.9,0,0,0,21.39,3.11q21.18,0,21.18-10.49c0-3.27-1.93-5.63-5.78-7s-9.77-2.64-17.75-3.64A171,171,0,0,1,1464,109.1a36.08,36.08,0,0,1-15.93-9.84q-6.75-7.07-6.74-20.11a31.5,31.5,0,0,1,6.31-19.36q6.3-8.44,18.39-13.15t28.56-4.71a112.25,112.25,0,0,1,24.28,2.67q12.09,2.68,20,7.38l-11.12,23.75a66.48,66.48,0,0,0-33.16-8.56q-10.69,0-16,3t-5.35,7.7q0,5.34,5.78,7.48t18.39,4.07a195.44,195.44,0,0,1,23.11,5,34.67,34.67,0,0,1,15.61,9.73q6.63,7,6.63,19.68a30.44,30.44,0,0,1-6.41,19q-6.42,8.34-18.72,12.94t-29.2,4.6A111.84,111.84,0,0,1,1460.37,156.91Z"/>
    <rect class="a" x="1564.97" width="33.33" height="33.33"/>
  </g>
</svg>
